<?xml version="1.0" encoding="utf-8"?>
<!-- Generator: Adobe Illustrator 18.1.1, SVG Export Plug-In . SVG Version: 6.00 Build 0)  -->
<svg version="1.1" id="Layer_1" xmlns="http://www.w3.org/2000/svg" xmlns:xlink="http://www.w3.org/1999/xlink" x="0px" y="0px"
	 viewBox="-210 392 10 10" enable-background="new -210 392 10 10" xml:space="preserve">
<polygon fill="#FFFFFF" points="-208,401.2 -207.2,402 -210,402 -210,399.2 -209.2,400 -207.4,398.3 -206.3,399.4 "/>
<polygon fill="#FFFFFF" points="-202.6,398.3 -203.7,399.4 -202,401.2 -202.8,402 -200,402 -200,399.2 -200.8,400 "/>
<polygon fill="#FFFFFF" points="-203.7,394.6 -202.6,395.7 -200.8,394 -200,394.8 -200,392 -202.8,392 -202,392.8 "/>
<polygon fill="#FFFFFF" points="-207.2,392 -210,392 -210,394.8 -209.2,394 -207.4,395.7 -206.3,394.6 -208,392.8 "/>
<path fill="#FFFFFF" d="M-205,395.8c-0.7,0-1.2,0.5-1.2,1.2c0,0.7,0.5,1.2,1.2,1.2c0.7,0,1.2-0.5,1.2-1.2
	C-203.8,396.3-204.3,395.8-205,395.8z"/>
</svg>
