<?xml version="1.0" encoding="utf-8"?>
<!-- Generator: Adobe Illustrator 18.1.1, SVG Export Plug-In . SVG Version: 6.00 Build 0)  -->
<svg version="1.1" id="Layer_1" xmlns="http://www.w3.org/2000/svg" xmlns:xlink="http://www.w3.org/1999/xlink" x="0px" y="0px"
	 viewBox="-222 388 14 18" enable-background="new -222 388 14 18" xml:space="preserve">
<path fill="#4776AA" d="M-209.4,402.5v1.4c0,0.3-0.2,0.5-0.5,0.5h-10.2c-0.3,0-0.5-0.2-0.5-0.5v-13.8c0-0.3,0.2-0.5,0.5-0.5h10.2
	c0.3,0,0.5,0.2,0.5,0.5v2.1l1.4,1.5v-4c0-0.9-0.7-1.7-1.6-1.7h-10.8c-0.9,0-1.6,0.8-1.6,1.7v14.6c0,0.9,0.7,1.7,1.6,1.7h10.8
	c0.9,0,1.6-0.8,1.6-1.7v-3.4L-209.4,402.5z"/>
<path fill="#4776AA" d="M-220.6,402.5v1.4c0,0.3,0.2,0.5,0.5,0.5h10.2c0.3,0,0.5-0.2,0.5-0.5v-13.8c0-0.3-0.2-0.5-0.5-0.5h-10.2
	c-0.3,0-0.5,0.2-0.5,0.5v2.1l-1.4,1.5v-4c0-0.9,0.7-1.7,1.6-1.7h10.8c0.9,0,1.6,0.8,1.6,1.7v14.6c0,0.9-0.7,1.7-1.6,1.7h-10.8
	c-0.9,0-1.6-0.8-1.6-1.7v-3.4L-220.6,402.5z"/>
</svg>
