<?xml version="1.0" encoding="utf-8"?>
<!-- Generator: Adobe Illustrator 18.1.1, SVG Export Plug-In . SVG Version: 6.00 Build 0)  -->
<svg version="1.1" id="Layer_1" xmlns="http://www.w3.org/2000/svg" xmlns:xlink="http://www.w3.org/1999/xlink" x="0px" y="0px"
	 viewBox="-218.5 386 27 19.5" enable-background="new -218.5 386 27 19.5" xml:space="preserve">
<path fill="#4BAA05" d="M-207,391.4l-4.8,4.8l-2.1-2.1c-0.1-0.1-0.4-0.1-0.5,0c-0.1,0.1-0.1,0.4,0,0.5l2.4,2.4
	c0.1,0.1,0.2,0.1,0.3,0.1c0.1,0,0.2,0,0.3-0.1l5-5c0.1-0.1,0.1-0.4,0-0.5C-206.6,391.2-206.8,391.2-207,391.4z"/>
<path fill="#4BAA05" d="M-210.5,386c-4.3,0-8,3.7-8,8s3.7,8,8,8s8-3.7,8-8S-206.2,386-210.5,386z M-210.5,401.2
	c-3.9,0-7.2-3.3-7.2-7.2s3.3-7.2,7.2-7.2s7.2,3.3,7.2,7.2S-206.6,401.2-210.5,401.2z"/>
<path fill="#4BAA05" d="M-197.9,394.5l-0.3,1.2c-0.4,0.1-0.7,0.2-1,0.4l-1.1-0.6l-1.2,1.2l0.7,1.1c-0.2,0.3-0.3,0.7-0.4,1l-1.2,0.3
	v1.7l1.2,0.3c0.1,0.4,0.2,0.7,0.4,1l-0.6,1.1l1.2,1.2l1.1-0.7c0.3,0.2,0.7,0.3,1,0.4l0.3,1.2h1.7l0.3-1.2c0.4-0.1,0.7-0.2,1-0.4
	l1.1,0.6l1.2-1.2l-0.7-1.1c0.2-0.3,0.3-0.7,0.4-1l1.2-0.3v-1.7l-1.2-0.3c-0.1-0.4-0.2-0.7-0.4-1l0.6-1.1l-1.2-1.2l-1.1,0.7
	c-0.3-0.2-0.7-0.3-1-0.4l-0.3-1.2H-197.9L-197.9,394.5z M-197,397.1c1.6,0,2.9,1.3,2.9,2.9c0,1.6-1.3,2.9-2.9,2.9s-2.9-1.3-2.9-2.9
	C-199.9,398.4-198.6,397.1-197,397.1z"/>
</svg>
