<?xml version="1.0" encoding="utf-8"?>
<!-- Generator: Adobe Illustrator 18.1.1, SVG Export Plug-In . SVG Version: 6.00 Build 0)  -->
<svg version="1.1" id="Layer_1" xmlns="http://www.w3.org/2000/svg" xmlns:xlink="http://www.w3.org/1999/xlink" x="0px" y="0px"
	 viewBox="-222 390.5 14 13" enable-background="new -222 390.5 14 13" xml:space="preserve">
<path fill="#FFFFFF" d="M-212.1,401.1c0,0-0.1,0.1-0.1,0.1v0.8c0,0.2-0.2,0.4-0.4,0.4h-7.9c-0.2,0-0.4-0.2-0.4-0.4V392
	c0-0.2,0.2-0.4,0.4-0.4h7.9c0.2,0,0.4,0.2,0.4,0.4v2.9l1.1-1.4v-1.8c0-0.7-0.6-1.2-1.3-1.2h-8.4c-0.7,0-1.3,0.6-1.3,1.2v10.5
	c0,0.7,0.6,1.2,1.3,1.2h8.4c0.7,0,1.3-0.6,1.3-1.2v-2.4L-212.1,401.1z"/>
<path fill="#FFFFFF" d="M-213.7,400.8c-0.3,0-0.6-0.1-0.8-0.3l-1.9-2.1c-0.4-0.4-0.3-1,0.1-1.4c0.4-0.4,1.1-0.3,1.4,0.1l1.1,1.2
	l3.9-4.8c0.3-0.4,1-0.5,1.4-0.2c0.4,0.3,0.5,1,0.2,1.4l-4.7,5.7C-213.1,400.7-213.3,400.8-213.7,400.8
	C-213.6,400.8-213.7,400.8-213.7,400.8z"/>
</svg>
