<?xml version="1.0" encoding="utf-8"?>
<!-- Generator: Adobe Illustrator 18.1.1, SVG Export Plug-In . SVG Version: 6.00 Build 0)  -->
<svg version="1.1" id="Layer_1" xmlns="http://www.w3.org/2000/svg" xmlns:xlink="http://www.w3.org/1999/xlink" x="0px" y="0px"
	 viewBox="-224.5 388 19 18" enable-background="new -224.5 388 19 18" xml:space="preserve">
<path fill="#4776AA" d="M-211,402.7c0,0.1-0.1,0.1-0.2,0.2v1.1c0,0.3-0.2,0.5-0.5,0.5h-10.8c-0.3,0-0.5-0.2-0.5-0.5v-13.8
	c0-0.3,0.2-0.5,0.5-0.5h10.8c0.3,0,0.5,0.2,0.5,0.5v4l1.5-1.9v-2.5c0-0.9-0.8-1.7-1.7-1.7h-11.4c-0.9,0-1.7,0.8-1.7,1.7v14.6
	c0,0.9,0.8,1.7,1.7,1.7h11.4c0.9,0,1.7-0.8,1.7-1.7v-3.4L-211,402.7z"/>
<path fill="#4776AA" d="M-213.2,402.3c-0.4,0-0.8-0.2-1-0.5l-2.5-2.9c-0.5-0.6-0.4-1.4,0.1-1.9c0.6-0.5,1.4-0.4,1.9,0.1l1.5,1.7
	l5.3-6.6c0.5-0.6,1.3-0.7,1.9-0.2c0.6,0.5,0.7,1.3,0.2,1.9l-6.3,7.9C-212.4,402.1-212.8,402.3-213.2,402.3
	C-213.2,402.3-213.2,402.3-213.2,402.3z"/>
</svg>
