<?xml version="1.0" encoding="utf-8"?>
<!-- Generator: Adobe Illustrator 18.1.1, SVG Export Plug-In . SVG Version: 6.00 Build 0)  -->
<svg version="1.1" id="Your_Icon" xmlns="http://www.w3.org/2000/svg" xmlns:xlink="http://www.w3.org/1999/xlink" x="0px" y="0px"
	 viewBox="-214.5 387.5 19 19" enable-background="new -214.5 387.5 19 19" xml:space="preserve">
<g>
	<path fill="#FFFFFF" d="M-197.7,406.5C-197.7,406.5-197.7,406.5-197.7,406.5c-0.1,0-0.2-0.1-0.3-0.1l-3.6-4.1
		c-1.4,3.4-1.4,3.4-1.7,3.4c-0.1,0-0.1,0-0.2,0c-0.1,0-0.2-0.1-0.2-0.2c-4.4-10.8-4.4-11-4.3-11.2c0.1-0.2,0.2-0.3,0.4-0.3
		c0.2,0,1.2,0.3,10.2,4.1c0.5,0.2,0.8,0.3,0.9,0.4c0,0,0,0,0.1,0c0.2,0.1,0.2,0.3,0.2,0.4c0,0.2-0.2,0.3-0.3,0.3
		c-0.3,0.1-1.5,0.6-2.8,1.1l3.8,3.9c0.1,0.1,0.1,0.2,0.1,0.3c0,0.1-0.1,0.2-0.1,0.3l-1.8,1.6C-197.5,406.5-197.6,406.5-197.7,406.5z
		 M-201.7,401.2c0.1,0,0.2,0,0.3,0.1l3.7,4.2l1.2-1l-3.9-4.1c-0.1-0.1-0.1-0.2-0.1-0.4c0-0.1,0.1-0.2,0.2-0.3c1.2-0.5,2-0.8,2.5-1
		c-4.9-2.1-8-3.3-9.2-3.8c0.6,1.6,2.4,6,3.7,9.3c0.3-0.7,0.8-1.9,1.2-2.9C-202,401.3-201.9,401.2-201.7,401.2
		C-201.7,401.2-201.7,401.2-201.7,401.2z"/>
</g>
<g>
	<path fill="#FFFFFF" d="M-210.6,391.8c-0.1,0-0.3,0-0.4-0.1l-1.6-1.6c-0.2-0.2-0.2-0.5,0-0.7c0.2-0.2,0.5-0.2,0.7,0l1.6,1.6
		c0.2,0.2,0.2,0.5,0,0.7C-210.4,391.8-210.5,391.8-210.6,391.8z"/>
</g>
<g>
	<path fill="#FFFFFF" d="M-211.7,393.8c0,0-0.1,0-0.1,0l-2.3-0.6c-0.3-0.1-0.4-0.3-0.4-0.6c0.1-0.3,0.3-0.4,0.6-0.3l2.3,0.6
		c0.3,0.1,0.4,0.3,0.4,0.6C-211.3,393.6-211.5,393.8-211.7,393.8z"/>
</g>
<g>
	<path fill="#FFFFFF" d="M-214,396.6c-0.2,0-0.4-0.1-0.5-0.4c-0.1-0.3,0.1-0.5,0.4-0.6l2.3-0.6c0.3-0.1,0.5,0.1,0.6,0.3
		c0.1,0.3-0.1,0.5-0.4,0.6l-2.3,0.6C-213.9,396.6-214,396.6-214,396.6z"/>
</g>
<g>
	<path fill="#FFFFFF" d="M-212.3,399.6c-0.1,0-0.3,0-0.4-0.1c-0.2-0.2-0.2-0.5,0-0.7l1.6-1.6c0.2-0.2,0.5-0.2,0.7,0
		c0.2,0.2,0.2,0.5,0,0.7l-1.6,1.6C-212,399.5-212.2,399.6-212.3,399.6z"/>
</g>
<g>
	<path fill="#FFFFFF" d="M-209.3,401.3c0,0-0.1,0-0.1,0c-0.3-0.1-0.4-0.3-0.4-0.6l0.6-2.2c0.1-0.3,0.3-0.4,0.6-0.3
		c0.3,0.1,0.4,0.3,0.4,0.6l-0.6,2.2C-208.9,401.1-209.1,401.3-209.3,401.3z"/>
</g>
<g>
	<path fill="#FFFFFF" d="M-203.4,393.8c-0.2,0-0.4-0.1-0.5-0.4c-0.1-0.3,0.1-0.5,0.4-0.6l2.3-0.6c0.3-0.1,0.5,0.1,0.6,0.3
		c0.1,0.3-0.1,0.5-0.4,0.6l-2.3,0.6C-203.3,393.8-203.3,393.8-203.4,393.8z"/>
</g>
<g>
	<path fill="#FFFFFF" d="M-204.5,391.8c-0.1,0-0.3,0-0.4-0.1c-0.2-0.2-0.2-0.5,0-0.7l1.6-1.6c0.2-0.2,0.5-0.2,0.7,0
		c0.2,0.2,0.2,0.5,0,0.7l-1.6,1.6C-204.2,391.8-204.4,391.8-204.5,391.8z"/>
</g>
<g>
	<path fill="#FFFFFF" d="M-206.4,390.7c0,0-0.1,0-0.1,0c-0.3-0.1-0.4-0.3-0.4-0.6l0.6-2.2c0.1-0.3,0.3-0.4,0.6-0.3
		c0.3,0.1,0.4,0.3,0.4,0.6l-0.6,2.2C-206,390.6-206.2,390.7-206.4,390.7z"/>
</g>
<g>
	<path fill="#FFFFFF" d="M-208.7,390.7c-0.2,0-0.4-0.1-0.5-0.4l-0.6-2.2c-0.1-0.3,0.1-0.5,0.4-0.6c0.3-0.1,0.5,0.1,0.6,0.3l0.6,2.2
		c0.1,0.3-0.1,0.5-0.4,0.6C-208.6,390.7-208.6,390.7-208.7,390.7z"/>
</g>
</svg>
