<?xml version="1.0" encoding="utf-8"?>
<!-- Generator: Adobe Illustrator 18.1.1, SVG Export Plug-In . SVG Version: 6.00 Build 0)  -->
<svg version="1.1" id="Layer_1" xmlns="http://www.w3.org/2000/svg" xmlns:xlink="http://www.w3.org/1999/xlink" x="0px" y="0px"
	 viewBox="-216 386 22 22" enable-background="new -216 386 22 22" xml:space="preserve">
<g>
	<g>
		<g>
			<path fill="#ADADAD" d="M-194,397c0-6.1-4.9-11-11-11c-6.1,0-11,4.9-11,11s4.9,11,11,11C-198.9,408-194,403.1-194,397z
				 M-214.7,397c0-5.4,4.4-9.7,9.7-9.7s9.7,4.4,9.7,9.7c0,5.4-4.4,9.7-9.7,9.7S-214.7,402.4-214.7,397z"/>
		</g>
	</g>
	<g>
		<g>
			<path fill="#ADADAD" d="M-199.4,395.9c0.2-0.2,0.2-0.6,0-0.9c-0.2-0.2-0.6-0.2-0.9,0l-4.7,4.7l-4.7-4.7c-0.2-0.2-0.6-0.2-0.9,0
				c-0.1,0.1-0.2,0.3-0.2,0.4c0,0.2,0.1,0.3,0.2,0.4l5.2,5.2c0.2,0.2,0.6,0.2,0.9,0L-199.4,395.9z"/>
		</g>
	</g>
</g>
</svg>
