<?xml version="1.0" encoding="utf-8"?>
<!-- Generator: Adobe Illustrator 18.1.1, SVG Export Plug-In . SVG Version: 6.00 Build 0)  -->
<svg version="1.1" id="Layer_1" xmlns="http://www.w3.org/2000/svg" xmlns:xlink="http://www.w3.org/1999/xlink" x="0px" y="0px"
	 viewBox="-218.5 388.5 19 17" enable-background="new -218.5 388.5 19 17" xml:space="preserve">
<path fill="#FFFFFF" d="M-213.5,398.6c-0.2-0.2-0.4-0.2-0.6,0l-2.7,2.6c-0.2,0.2-0.2,0.4,0,0.6l2.9,2.8h-4.1c-0.2,0-0.4,0.2-0.4,0.4
	c0,0.2,0.2,0.4,0.4,0.4h5.1c0.1,0,0.2,0,0.3,0c0,0,0,0,0,0l2.7-2.7c0.2-0.2,0.2-0.5,0-0.6C-210.1,402-213.4,398.8-213.5,398.6z"/>
<path fill="#FFFFFF" d="M-199.6,392.1l-1.5-1.5l-7.1,6.9c-0.1,0.1-0.2,0.1-0.3,0.1s-0.2,0-0.3-0.1c-0.2-0.2-0.2-0.4,0-0.6l7.1-6.9
	l-1.5-1.5c-0.2-0.2-0.4-0.2-0.6,0l-7.3,7c-0.2,0.2-0.2,0.4,0,0.6l3.6,3.5c0.1,0.1,0.2,0.1,0.3,0.1s0.2,0,0.3-0.1l7.3-7
	C-199.5,392.6-199.5,392.3-199.6,392.1L-199.6,392.1z"/>
<path fill="#FFFFFF" d="M-212.9,397.4c-0.2-0.2-0.4-0.2-0.6,0c-0.2,0.2-0.2,0.4,0,0.6l4.2,4.1c0.1,0.1,0.2,0.1,0.3,0.1
	c0.1,0,0.2,0,0.3-0.1c0.2-0.2,0.2-0.4,0-0.6L-212.9,397.4z"/>
<path fill="#FFFFFF" d="M-211.7,396.3c-0.2-0.2-0.4-0.2-0.6,0c-0.2,0.2-0.2,0.4,0,0.6l4.2,4.1c0.1,0.1,0.2,0.1,0.3,0.1
	c0.1,0,0.2,0,0.3-0.1c0.2-0.2,0.2-0.4,0-0.6L-211.7,396.3z"/>
</svg>
