<?xml version="1.0" encoding="utf-8"?>
<!-- Generator: Adobe Illustrator 18.1.1, SVG Export Plug-In . SVG Version: 6.00 Build 0)  -->
<svg version="1.1" id="Layer_1" xmlns="http://www.w3.org/2000/svg" xmlns:xlink="http://www.w3.org/1999/xlink" x="0px" y="0px"
	 viewBox="-215.5 386.5 21 21" enable-background="new -215.5 386.5 21 21" xml:space="preserve">
<g>
	<path fill="#8A8989" d="M-205,386.5c-5.8,0-10.5,4.7-10.5,10.5s4.7,10.5,10.5,10.5c5.8,0,10.5-4.7,10.5-10.5
		S-199.2,386.5-205,386.5z M-205,406.3c-5.1,0-9.3-4.2-9.3-9.3c0-5.1,4.2-9.3,9.3-9.3s9.3,4.2,9.3,9.3
		C-195.7,402.1-199.9,406.3-205,406.3z"/>
</g>
<g>
	<path fill="#8A8989" d="M-203,394.2l-2,2l-2-2c-0.2-0.2-0.6-0.2-0.9,0c-0.2,0.2-0.2,0.6,0,0.9l2,2l-2,2c-0.2,0.2-0.2,0.6,0,0.9
		c0.2,0.2,0.6,0.2,0.9,0l2-2l2,2c0.2,0.2,0.6,0.2,0.9,0c0.2-0.2,0.2-0.6,0-0.9l-2-2l2-2c0.2-0.2,0.2-0.6,0-0.9
		C-202.4,393.9-202.8,393.9-203,394.2z"/>
</g>
</svg>
