<?xml version="1.0" encoding="utf-8"?>
<!-- Generator: Adobe Illustrator 18.1.1, SVG Export Plug-In . SVG Version: 6.00 Build 0)  -->
<svg version="1.1" id="Layer_1" xmlns="http://www.w3.org/2000/svg" xmlns:xlink="http://www.w3.org/1999/xlink" x="0px" y="0px"
	 viewBox="-211.5 390.5 13 13" enable-background="new -211.5 390.5 13 13" xml:space="preserve">
<g>
	<path fill="#FFFFFF" d="M-205,390.5c-3.6,0-6.5,2.9-6.5,6.5s2.9,6.5,6.5,6.5c3.6,0,6.5-2.9,6.5-6.5S-201.4,390.5-205,390.5z
		 M-205,402.8c-3.2,0-5.8-2.6-5.8-5.8c0-3.2,2.6-5.8,5.8-5.8s5.8,2.6,5.8,5.8C-199.2,400.2-201.8,402.8-205,402.8z"/>
</g>
<g>
	<path fill="#FFFFFF" d="M-203.8,395.2l-1.2,1.2l-1.2-1.2c-0.1-0.1-0.4-0.1-0.5,0c-0.1,0.1-0.1,0.4,0,0.5l1.2,1.2l-1.2,1.2
		c-0.1,0.1-0.1,0.4,0,0.5c0.1,0.1,0.4,0.1,0.5,0l1.2-1.2l1.2,1.2c0.1,0.1,0.4,0.1,0.5,0c0.1-0.1,0.1-0.4,0-0.5l-1.2-1.2l1.2-1.2
		c0.1-0.1,0.1-0.4,0-0.5C-203.4,395.1-203.6,395.1-203.8,395.2z"/>
</g>
</svg>
