<?xml version="1.0" encoding="utf-8"?>
<!-- Generator: Adobe Illustrator 18.1.1, SVG Export Plug-In . SVG Version: 6.00 Build 0)  -->
<svg version="1.1" id="Layer_1" xmlns="http://www.w3.org/2000/svg" xmlns:xlink="http://www.w3.org/1999/xlink" x="0px" y="0px"
	 viewBox="-210 392 10 10" enable-background="new -210 392 10 10" xml:space="preserve">
<g id="Your_Icon">
	<path fill="#5E5E5E" d="M-200.2,400.9l-3.9-3.9l3.9-3.9c0.2-0.2,0.2-0.6,0-0.9c-0.2-0.2-0.6-0.2-0.9,0l-3.9,3.9l-3.9-3.9
		c-0.2-0.2-0.6-0.2-0.9,0c-0.2,0.2-0.2,0.6,0,0.9l3.9,3.9l-3.9,3.9c-0.2,0.2-0.2,0.6,0,0.9c0.2,0.2,0.6,0.2,0.9,0l3.9-3.9l3.9,3.9
		c0.2,0.2,0.6,0.2,0.9,0C-199.9,401.6-199.9,401.2-200.2,400.9z"/>
</g>
</svg>
