<?xml version="1.0" encoding="utf-8"?>
<!-- Generator: Adobe Illustrator 18.1.1, SVG Export Plug-In . SVG Version: 6.00 Build 0)  -->
<svg version="1.1" id="Layer_1" xmlns="http://www.w3.org/2000/svg" xmlns:xlink="http://www.w3.org/1999/xlink" x="0px" y="0px"
	 viewBox="-210.5 391.5 11 11" enable-background="new -210.5 391.5 11 11" xml:space="preserve">
<g id="Your_Icon">
	<path fill="#FFFFFF" d="M-199.7,401.3l-4.3-4.3l4.3-4.3c0.3-0.3,0.3-0.7,0-1c-0.3-0.3-0.7-0.3-1,0l-4.3,4.3l-4.3-4.3
		c-0.3-0.3-0.7-0.3-1,0c-0.3,0.3-0.3,0.7,0,1l4.3,4.3l-4.3,4.3c-0.3,0.3-0.3,0.7,0,1c0.3,0.3,0.7,0.3,1,0l4.3-4.3l4.3,4.3
		c0.3,0.3,0.7,0.3,1,0C-199.4,402-199.4,401.6-199.7,401.3z"/>
</g>
</svg>
