<?xml version="1.0" encoding="utf-8"?>
<!-- Generator: Adobe Illustrator 18.1.1, SVG Export Plug-In . SVG Version: 6.00 Build 0)  -->
<svg version="1.1" id="Your_Icon" xmlns="http://www.w3.org/2000/svg" xmlns:xlink="http://www.w3.org/1999/xlink" x="0px" y="0px"
	 viewBox="-213.5 388.5 17 17" enable-background="new -213.5 388.5 17 17" xml:space="preserve">
<path fill="#FFFFFF" d="M-197.3,389.3c-0.9-0.9-2.3-1.1-3-0.4l-3.5,2.6c-0.8-0.2-1.5-0.1-2,0.4l-0.3,0.3c-0.6,0.6-0.6,1.7-0.1,2.6
	l-5.5,5.5c-0.2,0.2-0.4,1-0.4,1.3c0,0.3-0.4,0.9-1,1.3l0,0c-0.5,0.5-0.5,1.3,0,1.8l0.3,0.3c0.5,0.5,1.3,0.5,1.8,0l0,0
	c0.3-0.4,0.9-0.9,1.3-1c0.3,0,0.9,0,1.2-0.3l5.5-5.5c0.9,0.5,2,0.5,2.6-0.1l0.3-0.3c0.5-0.5,0.6-1.3,0.4-2l2.6-3.4
	C-196.2,391.6-196.4,390.3-197.3,389.3z M-208.8,403.3c-0.2,0.2-0.9,0.1-0.9,0.1c-0.8,0-1.6,1.1-1.8,1.3c-0.3,0.2-0.6,0.2-0.9,0
	l-0.3-0.3c-0.2-0.2-0.2-0.6,0-0.9c0.3-0.2,1.4-1.2,1.2-2c0-0.5,0.2-0.6,0.2-0.6l5.4-5.5c0,0,0.1,0.1,0.1,0.1l2.3,2.3
	c0,0,0.1,0.1,0.1,0.1L-208.8,403.3z"/>
</svg>
