<?xml version="1.0" encoding="utf-8"?>
<!-- Generator: Adobe Illustrator 18.1.1, SVG Export Plug-In . SVG Version: 6.00 Build 0)  -->
<svg version="1.1" id="Layer_1" xmlns="http://www.w3.org/2000/svg" xmlns:xlink="http://www.w3.org/1999/xlink" x="0px" y="0px"
	 viewBox="-233 373.5 56 46" enable-background="new -233 373.5 56 46" xml:space="preserve">
<path fill="#BABABA" d="M-177,374.8c-0.1-0.7-0.7-1.3-1.4-1.3h-53.2c-0.7,0-1.3,0.6-1.4,1.3l0,35.6c0,0.8,0.6,1.4,1.4,1.4h53.2
	c0.8,0,1.4-0.6,1.4-1.4L-177,374.8z M-179.2,405.1h-51.5v-29.4h51.5V405.1z"/>
<path fill="#BABABA" d="M-196,418.4c-2.2-0.6-2.8-2.2-2.8-4.4v-0.6h-6.2h-6.2v0.6c0,2.2-0.6,3.9-2.8,4.4c-0.5,0.1-0.6,1.1,0,1.1h9h9
	C-195.5,419.5-195.5,418.5-196,418.4z"/>
</svg>
