<?xml version="1.0" encoding="utf-8"?>
<!-- Generator: Adobe Illustrator 18.1.1, SVG Export Plug-In . SVG Version: 6.00 Build 0)  -->
<svg version="1.1" id="Layer_1" xmlns="http://www.w3.org/2000/svg" xmlns:xlink="http://www.w3.org/1999/xlink" x="0px" y="0px"
	 viewBox="-215 387 20 20" enable-background="new -215 387 20 20" xml:space="preserve">
<path fill="#4BAA05" d="M-200.6,393.7l-6,6l-2.6-2.6c-0.2-0.2-0.5-0.2-0.7,0c-0.2,0.2-0.2,0.5,0,0.7l3,3c0.1,0.1,0.2,0.1,0.3,0.1
	s0.2-0.1,0.3-0.1l6.3-6.3c0.2-0.2,0.2-0.5,0-0.7C-200.1,393.5-200.4,393.5-200.6,393.7z"/>
<path fill="#4BAA05" d="M-205,387c-5.4,0-10,4.6-10,10s4.6,10,10,10s10-4.6,10-10S-199.6,387-205,387z M-205,406c-4.9,0-9-4.1-9-9
	s4.1-9,9-9s9,4.1,9,9S-200.1,406-205,406z"/>
</svg>
