<?xml version="1.0" encoding="utf-8"?>
<!-- Generator: Adobe Illustrator 18.1.1, SVG Export Plug-In . SVG Version: 6.00 Build 0)  -->
<svg version="1.1" id="Layer_1" xmlns="http://www.w3.org/2000/svg" xmlns:xlink="http://www.w3.org/1999/xlink" x="0px" y="0px"
	 viewBox="-226.5 379.5 35 35" enable-background="new -226.5 379.5 35 35" xml:space="preserve">
<path fill="#FFFFFF" d="M-209,381c8.8,0,16,7.2,16,16s-7.2,16-16,16c-8.8,0-16-7.2-16-16S-217.8,381-209,381z M-209,379.5
	c-9.7,0-17.5,7.8-17.5,17.5s7.8,17.5,17.5,17.5s17.5-7.8,17.5-17.5S-199.3,379.5-209,379.5L-209,379.5z"/>
<path fill="#FFFFFF" d="M-209.3,406.5c-5.2,0-9.5-4.3-9.5-9.5s4.2-9.5,9.4-9.5c3.1,0,5.9,1.5,7.7,4.1c0.2,0.3,0.1,0.8-0.2,1
	c-0.3,0.2-0.8,0.1-1-0.2c-1.5-2.2-3.9-3.5-6.5-3.5c-4.4,0-8,3.6-8,8s3.6,8,8.1,8c2.2,0,4.3-0.9,5.8-2.5c0.3-0.3,0.7-0.3,1,0
	c0.3,0.3,0.3,0.7,0,1C-204.2,405.4-206.7,406.5-209.3,406.5z"/>
</svg>
