<?xml version="1.0" encoding="utf-8"?>
<!-- Generator: Adobe Illustrator 18.1.1, SVG Export Plug-In . SVG Version: 6.00 Build 0)  -->
<svg version="1.1" id="Layer_1" xmlns="http://www.w3.org/2000/svg" xmlns:xlink="http://www.w3.org/1999/xlink" x="0px" y="0px"
	 viewBox="-219 387 20 20" enable-background="new -219 387 20 20" xml:space="preserve">
<path fill="#9CD747" d="M-209,387.8c5.1,0,9.2,4.1,9.2,9.2s-4.1,9.2-9.2,9.2c-5.1,0-9.2-4.1-9.2-9.2S-214.1,387.8-209,387.8z
	 M-209,387c-5.5,0-10,4.5-10,10s4.5,10,10,10c5.5,0,10-4.5,10-10S-203.5,387-209,387L-209,387z"/>
<path fill="#9CD747" d="M-209.2,402.4c-3,0-5.4-2.4-5.4-5.4s2.4-5.4,5.4-5.4c1.8,0,3.4,0.9,4.4,2.4c0.1,0.2,0.1,0.4-0.1,0.6
	c-0.2,0.1-0.4,0.1-0.6-0.1c-0.9-1.3-2.2-2-3.7-2c-2.5,0-4.5,2.1-4.5,4.6s2.1,4.6,4.6,4.6c1.3,0,2.5-0.5,3.3-1.4
	c0.2-0.2,0.4-0.2,0.6,0c0.2,0.2,0.2,0.4,0,0.6C-206.3,401.8-207.7,402.4-209.2,402.4z"/>
</svg>
