<?xml version="1.0" encoding="utf-8"?>
<!-- Generator: Adobe Illustrator 18.1.1, SVG Export Plug-In . SVG Version: 6.00 Build 0)  -->
<svg version="1.1" id="Layer_1" xmlns="http://www.w3.org/2000/svg" xmlns:xlink="http://www.w3.org/1999/xlink" x="0px" y="0px"
	 viewBox="-255.1 347.4 19 21" enable-background="new -255.1 347.4 19 21" xml:space="preserve">
<path fill="#797979" d="M-237.9,347.4h-9.4c-1,0-1.8,0.8-1.8,1.8v1.3h-4.3c-1,0-1.8,0.8-1.8,1.8v14.3c0,1,0.8,1.8,1.8,1.8h9.4
	c1,0,1.8-0.8,1.8-1.8v-1.3h4.3c1,0,1.8-0.8,1.8-1.8v-14.3C-236.1,348.2-236.9,347.4-237.9,347.4z M-243,366.6c0,0.5-0.4,0.9-0.9,0.9
	h-9.4c-0.5,0-0.9-0.4-0.9-0.9v-14.3c0-0.5,0.4-0.9,0.9-0.9h4.3h5.2c0.5,0,0.9,0.4,0.9,0.9v13V366.6z M-237,363.5
	c0,0.5-0.4,0.9-0.9,0.9h-4.3v-12.1c0-1-0.8-1.8-1.8-1.8h-4.3v-1.3c0-0.5,0.4-0.9,0.9-0.9h9.4c0.5,0,0.9,0.4,0.9,0.9V363.5z"/>
</svg>
