<?xml version="1.0" encoding="utf-8"?>
<!-- Generator: Adobe Illustrator 18.1.1, SVG Export Plug-In . SVG Version: 6.00 Build 0)  -->
<svg version="1.1" id="Layer_1" xmlns="http://www.w3.org/2000/svg" xmlns:xlink="http://www.w3.org/1999/xlink" x="0px" y="0px"
	 viewBox="-211 391 12 12" enable-background="new -211 391 12 12" xml:space="preserve">
<path fill="#FFFFFF" d="M-200.5,395.2v6.3c0,0.8-0.7,1.5-1.5,1.5h-7.5c-0.8,0-1.5-0.7-1.5-1.5V394c0-0.8,0.7-1.5,1.5-1.5h6.3
	l-1.5,1.5h-4.8v7.5h7.5v-4.8L-200.5,395.2z M-201.7,392.1l-0.5,0.5l1.6,1.6l0.5-0.5L-201.7,392.1z M-200.6,391l-0.5,0.5l1.6,1.6
	l0.5-0.5L-200.6,391z M-207.5,397.9l1.6,1.6l4.8-4.8l-1.6-1.6L-207.5,397.9z M-208,400h1.5l-1.5-1.5V400z"/>
</svg>
