<?xml version="1.0" encoding="utf-8"?>
<!-- Generator: Adobe Illustrator 18.1.1, SVG Export Plug-In . SVG Version: 6.00 Build 0)  -->
<svg version="1.1" id="Layer_1" xmlns="http://www.w3.org/2000/svg" xmlns:xlink="http://www.w3.org/1999/xlink" x="0px" y="0px"
	 viewBox="-214 388 18 18" enable-background="new -214 388 18 18" xml:space="preserve">
<path fill="#FFFFFF" d="M-205,388c-5,0-9,4-9,9c0,5,4,9,9,9s9-4,9-9C-196,392-200,388-205,388z M-205,405.1c-4.5,0-8.1-3.6-8.1-8.1
	s3.7-8.1,8.1-8.1s8.1,3.6,8.1,8.1S-200.5,405.1-205,405.1z M-204.6,400.6c0,0.3-0.2,0.5-0.5,0.5c-0.3,0-0.5-0.2-0.5-0.5
	s0.2-0.5,0.5-0.5C-204.8,400.2-204.6,400.4-204.6,400.6z M-205.5,398.3V393c0-0.2,0.2-0.4,0.4-0.4c0.2,0,0.4,0.2,0.4,0.4v5.3
	c0,0.2-0.2,0.4-0.4,0.4C-205.3,398.8-205.5,398.6-205.5,398.3z"/>
</svg>
