<?xml version="1.0" encoding="utf-8"?>
<!-- Generator: Adobe Illustrator 18.1.1, SVG Export Plug-In . SVG Version: 6.00 Build 0)  -->
<svg version="1.1" id="Layer_1" xmlns="http://www.w3.org/2000/svg" xmlns:xlink="http://www.w3.org/1999/xlink" x="0px" y="0px"
	 viewBox="-213 389 16 16" enable-background="new -213 389 16 16" xml:space="preserve">
<path fill="#EF2222" d="M-205,389c-4.4,0-8,3.6-8,8s3.6,8,8,8s8-3.6,8-8S-200.6,389-205,389L-205,389z M-204,401.8c0,0.6-0.4,1-1,1
	s-1-0.4-1-1v-0.2c0-0.6,0.4-1,1-1c0.6,0,1,0.4,1,1V401.8z M-203.5,392.8l-0.5,6.1c-0.1,0.6-0.5,1-1.1,0.9c-0.5,0-0.9-0.4-0.9-0.9
	l-0.5-6.1c-0.1-0.8,0.7-1.6,1.5-1.6C-204.2,391.2-203.5,392-203.5,392.8z"/>
</svg>
