<?xml version="1.0" encoding="utf-8"?>
<!-- Generator: Adobe Illustrator 18.1.1, SVG Export Plug-In . SVG Version: 6.00 Build 0)  -->
<svg version="1.1" id="Layer_1" xmlns="http://www.w3.org/2000/svg" xmlns:xlink="http://www.w3.org/1999/xlink" x="0px" y="0px"
	 viewBox="-206.5 391 3 12" enable-background="new -206.5 391 3 12" xml:space="preserve">
<path fill="#D35555" d="M-205,400.7c-0.5,0-1,0.5-1,1v0.2c0,0.6,0.4,1,1,1c0.5,0,1-0.5,1-1v-0.2C-204,401.2-204.5,400.7-205,400.7
	L-205,400.7z M-205,391c-0.8,0-1.5,0.8-1.5,1.7l0.5,6.3c0,0.5,0.4,0.9,0.9,1c0.6,0,1.1-0.4,1.1-1l0.5-6.3
	C-203.4,391.8-204.1,391-205,391z"/>
</svg>
