<?xml version="1.0" encoding="utf-8"?>
<!-- Generator: Adobe Illustrator 18.1.1, SVG Export Plug-In . SVG Version: 6.00 Build 0)  -->
<svg version="1.1" id="Layer_1" xmlns="http://www.w3.org/2000/svg" xmlns:xlink="http://www.w3.org/1999/xlink" x="0px" y="0px"
	 viewBox="-212.5 392 15 10" enable-background="new -212.5 392 15 10" xml:space="preserve">
<path fill="#FFFFFF" d="M-198,395.8c-1.3-1.4-3.9-3.8-7-3.8s-5.7,2.4-7,3.8c-0.7,0.7-0.7,1.8,0,2.5c1.3,1.4,3.9,3.8,7,3.8
	s5.7-2.4,7-3.8C-197.3,397.5-197.3,396.5-198,395.8z M-198.9,397.4c-1.2,1.3-3.5,3.4-6.1,3.4s-4.9-2.1-6.1-3.4
	c-0.2-0.2-0.2-0.6,0-0.8c1.2-1.3,3.5-3.4,6.1-3.4s4.9,2.1,6.1,3.4C-198.7,396.9-198.7,397.2-198.9,397.4z"/>
<circle fill="#FFFFFF" cx="-205.2" cy="397" r="1.9"/>
</svg>
