<?xml version="1.0" encoding="utf-8"?>
<!-- Generator: Adobe Illustrator 18.1.1, SVG Export Plug-In . SVG Version: 6.00 Build 0)  -->
<svg version="1.1" id="Layer_1" xmlns="http://www.w3.org/2000/svg" xmlns:xlink="http://www.w3.org/1999/xlink" x="0px" y="0px"
	 viewBox="-291.5 387 21 20" enable-background="new -291.5 387 21 20" xml:space="preserve">
<g id="iOS7-active" >
	<path id="time_history_recent" fill="#797979" d="M-289.6,395.2c0.8-4.7,4.7-8.2,9.5-8.2
		c5.3,0,9.6,4.5,9.6,10s-4.3,10-9.6,10c-3.9,0-7.3-2.5-8.8-6l0.7-0.6c1.3,3.3,4.4,5.7,8.1,5.7c4.8,0,8.8-4.1,8.8-9.1
		s-3.9-9.1-8.8-9.1c-4.2,0-7.8,3.1-8.6,7.3H-289.6L-289.6,395.2z M-280.6,397.3l4.6,2.8l0.4-0.8l-4.1-2.6v-6.1h-0.9V397.3z
		 M-289.3,397.9l2.2-2.7h-4.4L-289.3,397.9z"/>
</g>
</svg>
