<?xml version="1.0" encoding="utf-8"?>
<!-- Generator: Adobe Illustrator 18.1.1, SVG Export Plug-In . SVG Version: 6.00 Build 0)  -->
<svg version="1.1" id="Layer_1" xmlns="http://www.w3.org/2000/svg" xmlns:xlink="http://www.w3.org/1999/xlink" x="0px" y="0px"
	 viewBox="-299.5 379.5 37 35" enable-background="new -299.5 379.5 37 35" xml:space="preserve">
<g id="iOS7-active">
	<path id="time_history_recent" fill="#FFFFFF" d="M-296.1,393.8c1.4-8.1,8.4-14.3,16.7-14.3
		c9.4,0,17,7.8,17,17.5s-7.6,17.5-17,17.5c-7,0-12.9-4.3-15.6-10.5l1.2-1.1c2.3,5.9,7.8,10,14.3,10c8.5,0,15.4-7.1,15.4-15.9
		s-6.9-15.9-15.4-15.9c-7.5,0-13.7,5.5-15.1,12.7H-296.1L-296.1,393.8z M-280.2,397.6l8,4.9l0.8-1.4l-7.3-4.5v-10.7h-1.5V397.6z
		 M-295.6,398.6l3.9-4.8h-7.7L-295.6,398.6z"/>
</g>
</svg>
