<?xml version="1.0" encoding="utf-8"?>
<!-- Generator: Adobe Illustrator 18.1.1, SVG Export Plug-In . SVG Version: 6.00 Build 0)  -->
<svg version="1.1" id="Layer_1" xmlns="http://www.w3.org/2000/svg" xmlns:xlink="http://www.w3.org/1999/xlink" x="0px" y="0px"
	 viewBox="-220.5 376.5 31 41" enable-background="new -220.5 376.5 31 41" xml:space="preserve">
<polygon fill="#A4A5A5" points="-197,376.8 -197,384.1 -189.9,384.1 "/>
<path fill="#A4A5A5" d="M-197.6,384.7v-8.2h-22.9v15.9v25.1h7.8h23.2v-17.2v-7.9v-7.6H-197.6z M-205.8,406.8c-1.5,0-2.5-1.2-2.5-2.7
	c0-1.5,1.1-2.7,2.5-2.7c1.5,0,2.5,1.2,2.5,2.7C-203.2,405.6-204.3,406.8-205.8,406.8z M-203.9,399.7h-3.7c-0.6-4,3.6-5.7,3.6-7.8
	c0-1.2-0.8-1.8-1.9-1.8c-1.1,0-1.8,0.6-2.6,1.3l-2.3-2.2c1.3-1.6,3.1-2.7,5.2-2.7c3.2,0,5.7,1.5,5.7,5
	C-200,395.2-204.2,396.2-203.9,399.7z"/>
</svg>
