<?xml version="1.0" encoding="utf-8"?>
<!-- Generator: Adobe Illustrator 18.1.1, SVG Export Plug-In . SVG Version: 6.00 Build 0)  -->
<svg version="1.1" id="Layer_1" xmlns="http://www.w3.org/2000/svg" xmlns:xlink="http://www.w3.org/1999/xlink" x="0px" y="0px"
	 viewBox="-222.5 379.5 35 35" enable-background="new -222.5 379.5 35 35" xml:space="preserve">
<path fill="#FFFFFF" d="M-205,407.4c0.5,0,0.8-0.4,0.8-0.8v-10.8c0-0.5-0.4-0.8-0.8-0.8s-0.8,0.4-0.8,0.8v10.8
	C-205.8,407-205.5,407.4-205,407.4z"/>
<path fill="#FFFFFF" d="M-205,391.2c0.5,0,0.8-0.4,0.8-0.8v-2.1c0-0.5-0.4-0.8-0.8-0.8s-0.8,0.4-0.8,0.8v2.1
	C-205.8,390.8-205.5,391.2-205,391.2z"/>
<path fill="#FFFFFF" d="M-205,414.5c9.5,0,17.5-8,17.5-17.5s-8-17.5-17.5-17.5s-17.5,8-17.5,17.5S-214.5,414.5-205,414.5z
	 M-205,381.2c8.6,0,15.8,7.3,15.8,15.8s-7.3,15.8-15.8,15.8s-15.8-7.3-15.8-15.8S-213.6,381.2-205,381.2z"/>
</svg>
