<?xml version="1.0" encoding="utf-8"?>
<!-- Generator: Adobe Illustrator 18.1.1, SVG Export Plug-In . SVG Version: 6.00 Build 0)  -->
<svg version="1.1" id="Layer_1" xmlns="http://www.w3.org/2000/svg" xmlns:xlink="http://www.w3.org/1999/xlink" x="0px" y="0px"
	 viewBox="-215 387 20 20" enable-background="new -215 387 20 20" xml:space="preserve">
<path fill="#797979" d="M-205,403c0.3,0,0.5-0.2,0.5-0.5v-6.2c0-0.3-0.2-0.5-0.5-0.5s-0.5,0.2-0.5,0.5v6.2
	C-205.5,402.7-205.3,403-205,403z"/>
<path fill="#797979" d="M-205,393.7c0.3,0,0.5-0.2,0.5-0.5V392c0-0.3-0.2-0.5-0.5-0.5s-0.5,0.2-0.5,0.5v1.2
	C-205.5,393.5-205.3,393.7-205,393.7z"/>
<path fill="#797979" d="M-205,407c5.4,0,10-4.6,10-10s-4.6-10-10-10s-10,4.6-10,10S-210.4,407-205,407z M-205,388c4.9,0,9,4.1,9,9
	s-4.1,9-9,9s-9-4.1-9-9S-209.9,388-205,388z"/>
</svg>
