<?xml version="1.0" encoding="utf-8"?>
<!-- Generator: Adobe Illustrator 18.1.1, SVG Export Plug-In . SVG Version: 6.00 Build 0)  -->
<svg version="1.1" id="icons" xmlns="http://www.w3.org/2000/svg" xmlns:xlink="http://www.w3.org/1999/xlink" x="0px" y="0px"
	 viewBox="-216.5 389.5 23 14" enable-background="new -216.5 389.5 23 14" xml:space="preserve">
<path fill="#FFFFFF" d="M-194.2,389.5h-21.7c-0.4,0-0.7,0.3-0.7,0.6v12.7c0,0.4,0.3,0.6,0.7,0.6h21.7c0.4,0,0.7-0.3,0.7-0.6v-12.7
	C-193.5,389.8-193.8,389.5-194.2,389.5z M-194.8,402.2h-20.4v-11.5h20.4V402.2z"/>
<path fill="#FFFFFF" d="M-213.7,394.6c0.1,0,0.1,0,0.2-0.1l2.2-2.1c0.1-0.1,0.1-0.2,0-0.3c-0.1-0.1-0.2-0.1-0.3,0l-2.2,2.1
	c-0.1,0.1-0.1,0.2,0,0.3C-213.8,394.6-213.7,394.6-213.7,394.6z"/>
<path fill="#FFFFFF" d="M-213.7,396.7c0.1,0,0.1,0,0.2-0.1l4.3-4.2c0.1-0.1,0.1-0.2,0-0.3s-0.2-0.1-0.3,0l-4.3,4.2
	c-0.1,0.1-0.1,0.2,0,0.3C-213.8,396.7-213.7,396.7-213.7,396.7z"/>
<path fill="#FFFFFF" d="M-213.7,398.8c0.1,0,0.2-0.1,0.2-0.2v-0.8c0-0.1-0.1-0.2-0.2-0.2s-0.2,0.1-0.2,0.2v0.8
	C-213.9,398.7-213.8,398.8-213.7,398.8z"/>
<ellipse fill="#FFFFFF" cx="-197.2" cy="396.5" rx="0.6" ry="0.6"/>
</svg>
