<?xml version="1.0" encoding="utf-8"?>
<!-- Generator: Adobe Illustrator 18.1.1, SVG Export Plug-In . SVG Version: 6.00 Build 0)  -->
<svg version="1.1" id="Layer_1" xmlns="http://www.w3.org/2000/svg" xmlns:xlink="http://www.w3.org/1999/xlink" x="0px" y="0px"
	 viewBox="-214.5 384 19 26" enable-background="new -214.5 384 19 26" xml:space="preserve">
<path fill="#FFF" stroke="#FFF" stroke-width="1" stroke-miterlimit="10" d="M-198.6,409h-12.7c-1.2,0-2.1-0.9-2.1-2.1
	v-10.8c0-1.2,1-2.1,2.1-2.1h12.7c1.2,0,2.1,0.9,2.1,2.1v10.8C-196.5,408.1-197.5,409-198.6,409z M-211.4,394.6
	c-0.8,0-1.5,0.7-1.5,1.5v10.8c0,0.8,0.7,1.5,1.5,1.5h12.7c0.8,0,1.5-0.7,1.5-1.5v-10.8c0-0.8-0.7-1.5-1.5-1.5L-211.4,394.6
	L-211.4,394.6z"/>
<path fill="#FFF" stroke="#FFF" stroke-width="1" stroke-miterlimit="10" d="M-203.7,405.5h-2.6c-0.5,0-0.9-0.4-0.9-0.9
	c0,0,0-0.1,0-0.1l0.7-2.6c-0.6-0.5-1-1.2-1-1.9c0-1.3,1.1-2.4,2.5-2.4s2.5,1.1,2.5,2.4c0,0.8-0.4,1.5-1,1.9l0.7,2.6c0,0,0,0.1,0,0.1
	C-202.8,405.1-203.2,405.5-203.7,405.5z M-206.6,404.6c0,0.1,0.1,0.3,0.3,0.3h2.6c0.2,0,0.3-0.1,0.3-0.3l-0.8-2.8
	c0-0.1,0-0.3,0.1-0.3c0.6-0.3,0.9-0.9,0.9-1.5c0-1-0.8-1.8-1.8-1.8c-1,0-1.8,0.8-1.8,1.8c0,0.6,0.3,1.2,0.9,1.5
	c0.1,0.1,0.2,0.2,0.1,0.3L-206.6,404.6z"/>
<path fill="#FFF" stroke="#FFF" stroke-width="1" stroke-miterlimit="10" d="M-199.5,393.1c-0.2,0-0.3-0.1-0.3-0.3v-2.4
	c0-2.6-2.2-4.8-4.8-4.8h-0.7c-2.7,0-4.8,2.1-4.8,4.8v2.4c0,0.2-0.1,0.3-0.3,0.3c-0.2,0-0.3-0.1-0.3-0.3v-2.4c0-3,2.5-5.4,5.5-5.4
	h0.7c3,0,5.5,2.4,5.5,5.4v2.4C-199.2,393-199.3,393.1-199.5,393.1z"/>
</svg>
