<?xml version="1.0" encoding="utf-8"?>
<!-- Generator: Adobe Illustrator 18.1.1, SVG Export Plug-In . SVG Version: 6.00 Build 0)  -->
<svg version="1.1" id="Layer_1" xmlns="http://www.w3.org/2000/svg" xmlns:xlink="http://www.w3.org/1999/xlink" x="0px" y="0px"
	 viewBox="-214.5 390 19 14" enable-background="new -214.5 390 19 14" xml:space="preserve">
<path fill="#32353A" d="M-195.7,391.6c0-0.9-0.7-1.6-1.6-1.6h-15.8c-0.9,0-1.6,0.7-1.6,1.6v10.8c0,0.9,0.7,1.6,1.6,1.6h15.9
	c0.9,0,1.6-0.7,1.6-1.6L-195.7,391.6L-195.7,391.6z M-213.1,390.7h15.9c0.5,0,0.9,0.3,0.9,0.9v0.3l-8.8,4.8l-8.8-4.8v-0.3
	C-214,391-213.6,390.7-213.1,390.7z M-197.3,403.3h-15.8c-0.5,0-0.9-0.3-0.9-0.9v-9.9l8.7,4.7c0,0,0.1,0,0.2,0c0,0,0.1,0,0.2,0
	l8.7-4.7v9.9C-196.3,403-196.7,403.3-197.3,403.3z"/>
</svg>
