<?xml version="1.0" encoding="utf-8"?>
<!-- Generator: Adobe Illustrator 18.1.1, SVG Export Plug-In . SVG Version: 6.00 Build 0)  -->
<svg version="1.1" id="Layer_1" xmlns="http://www.w3.org/2000/svg" xmlns:xlink="http://www.w3.org/1999/xlink" x="0px" y="0px"
	 viewBox="-216 389 22 16" enable-background="new -216 389 22 16" xml:space="preserve">
<path fill="#FFF" d="M-194.2,390.8c0-1-0.8-1.8-1.8-1.8h-18.3c-1,0-1.8,0.8-1.8,1.8v12.4c0,1,0.8,1.8,1.8,1.8h18.4
	c1,0,1.8-0.8,1.8-1.8L-194.2,390.8L-194.2,390.8z M-214.3,389.7h18.4c0.6,0,1.1,0.4,1.1,1v0.3l-10.2,5.5l-10.2-5.5v-0.3
	C-215.4,390.1-214.9,389.7-214.3,389.7z M-196,404.2h-18.3c-0.6,0-1.1-0.4-1.1-1v-11.3l10.1,5.4c0,0,0.1,0,0.2,0s0.1,0,0.2,0
	l10.1-5.4v11.3C-194.9,403.8-195.4,404.2-196,404.2z"/>
</svg>
