<?xml version="1.0" encoding="utf-8"?>
<!-- Generator: Adobe Illustrator 18.1.1, SVG Export Plug-In . SVG Version: 6.00 Build 0)  -->
<svg version="1.1" id="Layer_1" xmlns="http://www.w3.org/2000/svg" xmlns:xlink="http://www.w3.org/1999/xlink" x="0px" y="0px"
	 viewBox="-213 382.5 16 29" enable-background="new -213 382.5 16 29" xml:space="preserve">
<g id="Your_Icon">
	<path fill="#FFFFFF" d="M-199.5,382.5h-11c-1.4,0-2.5,1.1-2.5,2.4v24.2c0,1.3,1.1,2.4,2.5,2.4h11c1.4,0,2.5-1.1,2.5-2.4v-24.2
		C-197,383.6-198.1,382.5-199.5,382.5z M-206.4,383.2h2.8c0.1,0,0.2,0.1,0.2,0.2c0,0.1-0.1,0.2-0.2,0.2h-2.8c-0.1,0-0.2-0.1-0.2-0.2
		C-206.6,383.3-206.5,383.2-206.4,383.2z M-203.3,410.1c0,0.3-0.2,0.5-0.5,0.5h-2.4c-0.3,0-0.5-0.2-0.5-0.5v-0.2
		c0-0.3,0.2-0.5,0.5-0.5h2.4c0.3,0,0.5,0.2,0.5,0.5V410.1z M-197.9,409h-14.2v-23.9h14.2V409z"/>
</g>
</svg>
