<?xml version="1.0" encoding="utf-8"?>
<!-- Generator: Adobe Illustrator 18.1.1, SVG Export Plug-In . SVG Version: 6.00 Build 0)  -->
<svg version="1.1" id="lamp.fw-bell" xmlns="http://www.w3.org/2000/svg" xmlns:xlink="http://www.w3.org/1999/xlink" x="0px"
	 y="0px" viewBox="-212.5 389.5 15 15" enable-background="new -212.5 389.5 15 15" xml:space="preserve">
<g id="Layer_x25_2015">
	<path fill="#FFFFFF" d="M-197.7,400.5c-1.5-1.4-1.8-3.4-2.1-5.3c-0.4-2.6-0.9-5.6-5.1-5.6c-4.3,0-4.7,3-5.1,5.6
		c-0.3,1.9-0.6,3.9-2.1,5.3c-0.2,0.2-0.3,0.6-0.2,0.9c0.1,0.3,0.4,0.5,0.7,0.5h3.7c0.2,1.5,1.4,2.7,3,2.7c1.5,0,2.8-1.2,3-2.7h3.7
		c0.3,0,0.6-0.2,0.7-0.5C-197.4,401-197.5,400.7-197.7,400.5z M-205,403.1c-0.8,0-1.4-0.6-1.6-1.3h3.2
		C-203.6,402.6-204.2,403.1-205,403.1z M-210.1,400.2c1-1.5,1.2-3.3,1.5-4.9c0.4-2.9,0.8-4.3,3.6-4.3s3.1,1.4,3.6,4.3
		c0.2,1.6,0.5,3.3,1.5,4.9H-210.1z"/>
</g>
</svg>
