<?xml version="1.0" encoding="utf-8"?>
<!-- Generator: Adobe Illustrator 18.1.1, SVG Export Plug-In . SVG Version: 6.00 Build 0)  -->
<svg version="1.1" id="Layer_1" xmlns="http://www.w3.org/2000/svg" xmlns:xlink="http://www.w3.org/1999/xlink" x="0px" y="0px"
	 viewBox="-294 388.5 18 17" enable-background="new -294 388.5 18 17" xml:space="preserve">
<path fill="#ADADAD" d="M-277.1,389.6c-1.5-1.5-4-1.5-5.5,0.1l-9.7,9.9c-1.5,1.5-2.6,2.9-0.8,4.9l0,0c0,0,0,0,0,0
	c0,0,0.1,0.1,0.1,0.1l0,0c1.5,1.4,2.9,0.6,3.7-0.1l6.8-7c0.8-0.8,0.8-2.1,0.1-2.9c-0.8-0.8-2-0.7-2.8,0.1l-6,6.1l0.6,0.6l6-6.1
	c0.5-0.5,1.2-0.5,1.6,0s0.4,1.2,0,1.7l-6.8,7c-0.5,0.5-1.5,1.1-2.7,0c-1.6-1.7-0.5-2.6,0.7-3.8l9.7-9.9c1.2-1.3,3.2-1.3,4.3-0.1
	c1.2,1.2,1.1,3.2-0.1,4.4l-6.6,6.7l0.6,0.6l6.6-6.7C-275.7,393.6-275.6,391.1-277.1,389.6z"/>
</svg>
