<?xml version="1.0" encoding="utf-8"?>
<!-- Generator: Adobe Illustrator 18.1.1, SVG Export Plug-In . SVG Version: 6.00 Build 0)  -->
<svg version="1.1" id="Layer_1" xmlns="http://www.w3.org/2000/svg" xmlns:xlink="http://www.w3.org/1999/xlink" x="0px" y="0px"
	 viewBox="-214 388 18 18" enable-background="new -214 388 18 18" xml:space="preserve">
<path fill="#4776AA" d="M-205,388c-5,0-9,4-9,9s4,9,9,9s9-4,9-9C-196,392-200,388-205,388z M-209.4,398.2c-0.7,0-1.2-0.6-1.2-1.2
	s0.6-1.2,1.2-1.2c0.7,0,1.2,0.6,1.2,1.2C-208.2,397.7-208.7,398.2-209.4,398.2z M-205,398.2c-0.7,0-1.2-0.6-1.2-1.2s0.6-1.2,1.2-1.2
	c0.7,0,1.2,0.6,1.2,1.2C-203.8,397.7-204.3,398.2-205,398.2z M-200.6,398.2c-0.7,0-1.2-0.6-1.2-1.2s0.6-1.2,1.2-1.2
	c0.7,0,1.2,0.6,1.2,1.2C-199.4,397.7-199.9,398.2-200.6,398.2z"/>
</svg>
