<?xml version="1.0" encoding="utf-8"?>
<!-- Generator: Adobe Illustrator 18.1.1, SVG Export Plug-In . SVG Version: 6.00 Build 0)  -->
<svg version="1.1" id="Layer_1" xmlns="http://www.w3.org/2000/svg" xmlns:xlink="http://www.w3.org/1999/xlink" x="0px" y="0px"
	 viewBox="-213 389 16 16" enable-background="new -213 389 16 16" xml:space="preserve">
<path fill="#FFFFFF" d="M-205,389c-4.4,0-8,3.6-8,8s3.6,8,8,8c4.4,0,8-3.6,8-8C-197,392.6-200.6,389-205,389z M-208.9,398.1
	c-0.6,0-1.1-0.5-1.1-1.1s0.5-1.1,1.1-1.1c0.6,0,1.1,0.5,1.1,1.1C-207.8,397.6-208.3,398.1-208.9,398.1z M-205,398.1
	c-0.6,0-1.1-0.5-1.1-1.1s0.5-1.1,1.1-1.1c0.6,0,1.1,0.5,1.1,1.1C-203.9,397.6-204.4,398.1-205,398.1z M-201.1,398.1
	c-0.6,0-1.1-0.5-1.1-1.1s0.5-1.1,1.1-1.1s1.1,0.5,1.1,1.1C-200,397.6-200.5,398.1-201.1,398.1z"/>
</svg>
