<?xml version="1.0" encoding="utf-8"?>
<!-- Generator: Adobe Illustrator 18.1.1, SVG Export Plug-In . SVG Version: 6.00 Build 0)  -->
<svg version="1.1" id="Layer_1" xmlns="http://www.w3.org/2000/svg" xmlns:xlink="http://www.w3.org/1999/xlink" x="0px" y="0px"
	 viewBox="-214 388 18 18" enable-background="new -214 388 18 18" xml:space="preserve">
<path fill="#32353A" d="M-199.9,406C-199.9,406-199.9,406-199.9,406c-3.5,0-7.4-3.6-9-5.1c-1.7-1.7-5.5-6-5.1-9.6
	c0.2-1.4,0.9-2.4,2.2-3.2c0.1-0.1,0.2-0.1,0.4-0.1c1,0,3.1,2.4,3.9,3.6c1.2,1.7,1,2.2,1,2.3c-0.2,0.6-0.6,0.9-0.9,1.2
	c-0.3,0.3-0.5,0.5-0.7,0.8c0,0.1,0.1,0.6,0.9,1.5c1.2,1.5,2.7,2.6,3.2,2.6c0.4-0.1,0.6-0.4,0.8-0.7c0.3-0.3,0.6-0.7,1.2-0.9
	c0.1,0,0.2,0,0.3,0c1.2,0,4.7,2.8,5.5,4.3c0.1,0.2,0.3,0.6,0.1,1C-197,405.2-198.3,406-199.9,406z M-211.3,388.9
	c-1.1,0.7-1.6,1.5-1.8,2.6c-0.3,2.2,1.5,5.6,4.8,8.9c1.5,1.5,5.2,4.8,8.4,4.8c0,0,0,0,0,0c1.3,0,2.3-0.6,3.1-1.8
	c-0.1-0.8-3.9-4-4.8-4c-0.3,0.1-0.6,0.4-0.8,0.7c-0.3,0.3-0.6,0.7-1.2,0.9c-0.1,0-0.2,0-0.3,0c-1.1,0-3.3-2-4.3-3.4
	c-0.6-0.8-0.8-1.4-0.6-1.8c0.2-0.6,0.6-0.9,0.9-1.2c0.3-0.3,0.5-0.5,0.7-0.8c0-0.3-0.7-1.5-2-3
	C-210.4,389.4-211.1,388.9-211.3,388.9z"/>
</svg>
