<?xml version="1.0" encoding="utf-8"?>
<!-- Generator: Adobe Illustrator 18.1.1, SVG Export Plug-In . SVG Version: 6.00 Build 0)  -->
<svg version="1.1" id="Layer_1" xmlns="http://www.w3.org/2000/svg" xmlns:xlink="http://www.w3.org/1999/xlink" x="0px" y="0px"
	 viewBox="-217 375 24 44" enable-background="new -217 375 24 44" xml:space="preserve">
<g id="Your_Icon">
	<path fill="#BABABA" d="M-196.7,375h-16.5c-2.1,0-3.7,1.6-3.7,3.6v36.7c0,2,1.7,3.6,3.7,3.6h16.5c2.1,0,3.7-1.6,3.7-3.6v-36.7
		C-193,376.6-194.7,375-196.7,375z M-207.1,376h4.2c0.2,0,0.3,0.1,0.3,0.3c0,0.2-0.1,0.3-0.3,0.3h-4.2c-0.2,0-0.3-0.1-0.3-0.3
		C-207.4,376.1-207.3,376-207.1,376z M-202.5,416.9c0,0.4-0.3,0.7-0.7,0.7h-3.6c-0.4,0-0.7-0.3-0.7-0.7v-0.3c0-0.4,0.3-0.7,0.7-0.7
		h3.6c0.4,0,0.7,0.3,0.7,0.7V416.9z M-194.4,415.2h-21.3v-36.3h21.3V415.2z"/>
</g>
</svg>
