<?xml version="1.0" encoding="utf-8"?>
<!-- Generator: Adobe Illustrator 18.1.1, SVG Export Plug-In . SVG Version: 6.00 Build 0)  -->
<svg version="1.1" id="icons" xmlns="http://www.w3.org/2000/svg" xmlns:xlink="http://www.w3.org/1999/xlink" x="0px" y="0px"
	 viewBox="-212 386 14 22" enable-background="new -212 386 14 22" xml:space="preserve">
<path fill="#FFFFFF" d="M-198.6,386h-12.7c-0.4,0-0.6,0.3-0.6,0.6v20.8c0,0.3,0.3,0.6,0.6,0.6h12.7c0.4,0,0.6-0.3,0.6-0.6v-20.8
	C-198,386.3-198.3,386-198.6,386z M-199.3,406.8h-11.5v-19.5h11.5V406.8z"/>
<path fill="#FFFFFF" d="M-209.2,391c0.1,0,0.1,0,0.2-0.1l2.1-2.1c0.1-0.1,0.1-0.2,0-0.3c-0.1-0.1-0.2-0.1-0.3,0l-2.1,2.1
	c-0.1,0.1-0.1,0.2,0,0.3C-209.4,391-209.3,391-209.2,391z"/>
<path fill="#FFFFFF" d="M-209.2,393.1c0.1,0,0.1,0,0.2-0.1l4.2-4.2c0.1-0.1,0.1-0.2,0-0.3c-0.1-0.1-0.2-0.1-0.3,0l-4.2,4.2
	c-0.1,0.1-0.1,0.2,0,0.3C-209.4,393-209.3,393.1-209.2,393.1z"/>
<path fill="#FFFFFF" d="M-204.2,388.9h1.3c0.1,0,0.2-0.1,0.2-0.2s-0.1-0.2-0.2-0.2h-1.3c-0.1,0-0.2,0.1-0.2,0.2
	S-204.3,388.9-204.2,388.9z"/>
<ellipse fill="#FFFFFF" cx="-205" cy="403.2" rx="0.6" ry="0.6"/>
</svg>
