<?xml version="1.0" encoding="utf-8"?>
<!-- Generator: Adobe Illustrator 18.1.1, SVG Export Plug-In . SVG Version: 6.00 Build 0)  -->
<svg version="1.1" id="Layer_1" xmlns="http://www.w3.org/2000/svg" xmlns:xlink="http://www.w3.org/1999/xlink" x="0px" y="0px"
	 viewBox="-211.5 391.5 13 11" enable-background="new -211.5 391.5 13 11" xml:space="preserve">
<path fill="#FFFFFF" d="M-202.6,400.4c-0.7,0.5-1.6,0.8-2.4,0.8c-0.1,0-0.2,0-0.3,0c0,0-0.1,0-0.1,0c-0.1,0-0.2,0-0.3,0
	c-0.1,0-0.1,0-0.2,0c-0.1,0-0.2,0-0.2-0.1c0,0-0.1,0-0.1,0c-0.1,0-0.2-0.1-0.3-0.1c0,0,0,0-0.1,0c-0.1,0-0.2-0.1-0.3-0.2
	c0,0,0,0,0,0c-0.3-0.2-0.7-0.4-0.9-0.7c0,0,0,0,0,0c-0.1-0.1-0.2-0.2-0.2-0.3c0,0,0,0,0-0.1c-0.6-0.7-0.9-1.6-0.9-2.6h1.1l-1.7-2.6
	l-1.7,2.6h1.1c0,1.2,0.4,2.2,1,3.1c0,0,0,0,0,0c0.1,0.1,0.1,0.2,0.2,0.3c0,0,0,0.1,0.1,0.1c0.1,0.1,0.2,0.2,0.3,0.3c0,0,0,0,0,0
	c0.4,0.4,0.8,0.7,1.2,0.9c0,0,0,0,0,0c0.1,0.1,0.3,0.1,0.4,0.2c0,0,0.1,0,0.1,0c0.1,0,0.2,0.1,0.4,0.1c0.1,0,0.1,0,0.2,0.1
	c0.1,0,0.2,0.1,0.3,0.1c0.1,0,0.1,0,0.2,0c0,0,0.1,0,0.1,0c0.1,0,0.2,0,0.3,0c0,0,0.1,0,0.1,0c0.2,0,0.4,0,0.5,0
	c1.1,0,2.2-0.3,3.1-1c0.3-0.2,0.4-0.6,0.2-0.9C-201.9,400.3-202.3,400.2-202.6,400.4z"/>
<path fill="#FFFFFF" d="M-199.6,397c0-1.2-0.4-2.2-1-3.1c0,0,0,0,0,0c-0.1-0.1-0.2-0.2-0.2-0.3c0,0,0,0,0,0c-0.5-0.7-1.2-1.2-2-1.5
	c0,0,0,0-0.1,0c-0.1-0.1-0.3-0.1-0.4-0.1c0,0-0.1,0-0.1,0c-0.1,0-0.2-0.1-0.3-0.1c-0.1,0-0.1,0-0.2,0c0,0-0.1,0-0.1,0
	c-0.1,0-0.2,0-0.3,0c-0.1,0-0.1,0-0.2,0c-0.1,0-0.3,0-0.4,0c0,0-0.1,0-0.1,0c0,0,0,0,0,0c-1.1,0-2.2,0.3-3.1,1
	c-0.3,0.2-0.4,0.6-0.2,0.9c0.2,0.3,0.6,0.4,0.9,0.2c0.7-0.5,1.5-0.8,2.4-0.8c0.1,0,0.2,0,0.4,0c0,0,0.1,0,0.1,0c0.1,0,0.2,0,0.3,0
	c0,0,0.1,0,0.1,0c0.1,0,0.2,0,0.3,0.1c0,0,0.1,0,0.1,0c0.1,0,0.2,0.1,0.3,0.1c0,0,0,0,0,0c0.6,0.3,1.1,0.7,1.6,1.2c0,0,0,0,0,0
	c0.6,0.7,0.9,1.6,0.9,2.6h-1.1l1.7,2.6l1.7-2.6H-199.6z"/>
</svg>
