<?xml version="1.0" encoding="utf-8"?>
<!-- Generator: Adobe Illustrator 18.1.1, SVG Export Plug-In . SVG Version: 6.00 Build 0)  -->
<svg version="1.1" id="Layer_1" xmlns="http://www.w3.org/2000/svg" xmlns:xlink="http://www.w3.org/1999/xlink" x="0px" y="0px"
	 viewBox="-224.5 388 19 18" enable-background="new -224.5 388 19 18" xml:space="preserve">
<path fill="#4776AA" d="M-211.8,402.5v1.4c0,0.3-0.2,0.5-0.5,0.5h-10.3c-0.3,0-0.5-0.2-0.5-0.5v-13.8c0-0.3,0.2-0.5,0.5-0.5h10.3
	c0.3,0,0.5,0.2,0.5,0.5v2.1l1.5,1.5v-4c0-0.9-0.7-1.7-1.6-1.7h-10.9c-0.9,0-1.6,0.8-1.6,1.7v14.6c0,0.9,0.7,1.7,1.6,1.7h10.9
	c0.9,0,1.6-0.8,1.6-1.7v-3.4L-211.8,402.5z"/>
<path fill="#4776AA" d="M-205.9,399.9l-2.4-2.6l2.4-2.6c0.5-0.5,0.5-1.4,0-2c-0.5-0.5-1.4-0.5-1.9,0l-2.4,2.6l-2.4-2.6
	c-0.5-0.5-1.4-0.5-1.9,0c-0.5,0.5-0.5,1.4,0,2l2.4,2.6l-2.4,2.6c-0.5,0.5-0.5,1.4,0,2c0.3,0.3,0.6,0.4,0.9,0.4c0.3,0,0.7-0.1,1-0.4
	l2.4-2.6l2.4,2.6c0.3,0.3,0.6,0.4,1,0.4c0.3,0,0.7-0.1,0.9-0.4C-205.4,401.3-205.4,400.4-205.9,399.9z"/>
</svg>
