<?xml version="1.0" encoding="utf-8"?>
<!-- Generator: Adobe Illustrator 18.1.1, SVG Export Plug-In . SVG Version: 6.00 Build 0)  -->
<svg version="1.1" id="Layer_1" xmlns="http://www.w3.org/2000/svg" xmlns:xlink="http://www.w3.org/1999/xlink" x="0px" y="0px"
	 viewBox="-213 389 16 16" enable-background="new -213 389 16 16" xml:space="preserve">
<g>
	<path fill="#E39F9F" d="M-199.3,391.4C-199.3,391.4-199.3,391.3-199.3,391.4C-199.3,391.3-199.4,391.3-199.3,391.4
		c-1.5-1.5-3.5-2.4-5.7-2.4c-4.4,0-8,3.6-8,8c0,2.2,0.9,4.2,2.3,5.6c0,0,0,0,0,0c0,0,0,0,0,0c1.4,1.4,3.4,2.3,5.6,2.3
		c4.4,0,8-3.6,8-8C-197,394.8-197.9,392.8-199.3,391.4z M-205,389.9c1.8,0,3.4,0.7,4.7,1.8l-10,10c-1.1-1.2-1.8-2.9-1.8-4.7
		C-212.1,393.1-208.9,389.9-205,389.9z M-205,404.1c-1.8,0-3.4-0.7-4.7-1.8l10-10c1.1,1.2,1.8,2.9,1.8,4.7
		C-197.9,400.9-201.1,404.1-205,404.1z"/>
</g>
</svg>
