<?xml version="1.0" encoding="utf-8"?>
<!-- Generator: Adobe Illustrator 18.1.1, SVG Export Plug-In . SVG Version: 6.00 Build 0)  -->
<svg version="1.1" id="Layer_1" xmlns="http://www.w3.org/2000/svg" xmlns:xlink="http://www.w3.org/1999/xlink" x="0px" y="0px"
	 viewBox="-222 390.5 14 13" enable-background="new -222 390.5 14 13" xml:space="preserve">
<path fill="#FFFFFF" d="M-212.6,401v1c0,0.2-0.2,0.4-0.3,0.4h-7.6c-0.2,0-0.3-0.2-0.3-0.4V392c0-0.2,0.2-0.4,0.3-0.4h7.6
	c0.2,0,0.3,0.2,0.3,0.4v1.5l1.1,1.1v-2.9c0-0.7-0.5-1.2-1.2-1.2h-8c-0.7,0-1.2,0.6-1.2,1.2v10.5c0,0.7,0.5,1.2,1.2,1.2h8
	c0.7,0,1.2-0.6,1.2-1.2v-2.4L-212.6,401z"/>
<path fill="#FFFFFF" d="M-208.3,399.1l-1.8-1.8l1.8-1.8c0.4-0.4,0.4-1,0-1.4c-0.4-0.4-1-0.4-1.4,0l-1.8,1.8l-1.8-1.8
	c-0.4-0.4-1-0.4-1.4,0c-0.4,0.4-0.4,1,0,1.4l1.8,1.8l-1.8,1.8c-0.4,0.4-0.4,1,0,1.4c0.2,0.2,0.4,0.3,0.7,0.3c0.3,0,0.5-0.1,0.7-0.3
	l1.8-1.8l1.8,1.8c0.2,0.2,0.4,0.3,0.7,0.3c0.3,0,0.5-0.1,0.7-0.3C-207.9,400.1-207.9,399.5-208.3,399.1z"/>
</svg>
