<?xml version="1.0" encoding="utf-8"?>
<!-- Generator: Adobe Illustrator 18.1.1, SVG Export Plug-In . SVG Version: 6.00 Build 0)  -->
<svg version="1.1" id="Layer_1" xmlns="http://www.w3.org/2000/svg" xmlns:xlink="http://www.w3.org/1999/xlink" x="0px" y="0px"
	 viewBox="-216 387.5 22 19" enable-background="new -216 387.5 22 19" xml:space="preserve">
<path fill="#FFFFFF" d="M-216,402.6h7.9v1.8h-7.9V402.6z M-203.5,387.5c-5.2,0-9.5,4.3-9.5,9.5h-3l3.9,4.7l3.9-4.7h-3
	c0-4.2,3.4-7.7,7.7-7.7c4.2,0,7.7,3.4,7.7,7.7c0,4.2-3.4,7.7-7.7,7.7v1.8c5.2,0,9.5-4.3,9.5-9.5C-194,391.8-198.3,387.5-203.5,387.5
	z M-208.6,392.5l1.2,1.2c0.2-0.2,0.4-0.5,0.6-0.6l-1.2-1.2C-208.2,392-208.4,392.3-208.6,392.5z M-200.5,390.9
	c-0.3-0.1-0.6-0.3-0.8-0.3l-0.6,1.6c0.3,0.1,0.6,0.2,0.8,0.4L-200.5,390.9z M-199,391.8l-1.2,1.2c0.2,0.2,0.4,0.4,0.6,0.6l1.2-1.2
	C-198.5,392.3-198.7,392-199,391.8z M-199,402.2c0.2-0.2,0.4-0.4,0.6-0.6l-1.2-1.2c-0.2,0.2-0.4,0.5-0.6,0.6L-199,402.2z
	 M-196.6,397c0-0.2,0-0.3,0-0.5h-1.7c0,0.2,0,0.3,0,0.5c0,0.2,0,0.3,0,0.5h1.7C-196.6,397.3-196.6,397.2-196.6,397z M-198.9,394.6
	c0.1,0.3,0.3,0.6,0.4,0.8l1.6-0.6c-0.1-0.3-0.2-0.6-0.3-0.8L-198.9,394.6z M-203,402.2c-0.2,0-0.3,0-0.5,0c-0.2,0-0.3,0-0.5,0v1.7
	c0.2,0,0.3,0,0.5,0c0.2,0,0.3,0,0.5,0V402.2z M-201.3,403.5c0.3-0.1,0.6-0.2,0.8-0.3l-0.6-1.6c-0.3,0.1-0.5,0.3-0.8,0.4
	L-201.3,403.5z M-198.9,399.4l1.6,0.6c0.1-0.3,0.3-0.6,0.3-0.8l-1.6-0.6C-198.6,398.8-198.8,399.1-198.9,399.4z M-206.5,390.9
	l0.6,1.6c0.3-0.1,0.5-0.3,0.8-0.4l-0.6-1.6C-206,390.6-206.3,390.7-206.5,390.9z M-210,394.8l1.6,0.6c0.1-0.3,0.2-0.6,0.4-0.8
	l-1.6-0.6C-209.8,394.2-209.9,394.5-210,394.8z M-203,391.8v-1.7c-0.2,0-0.3,0-0.5,0c-0.2,0-0.3,0-0.5,0v1.7c0.2,0,0.3,0,0.5,0
	C-203.3,391.8-203.2,391.8-203,391.8z"/>
</svg>
