<?xml version="1.0" encoding="utf-8"?>
<!-- Generator: Adobe Illustrator 18.1.1, SVG Export Plug-In . SVG Version: 6.00 Build 0)  -->
<svg version="1.1" id="Layer_1" xmlns="http://www.w3.org/2000/svg" xmlns:xlink="http://www.w3.org/1999/xlink" x="0px" y="0px"
	 viewBox="-214.5 380.5 19 33" enable-background="new -214.5 380.5 19 33" xml:space="preserve">
<g id="Your_Icon">
	<path fill="#636363" d="M-198.5,380.5h-13.1c-1.6,0-3,1.2-3,2.7v27.5c0,1.5,1.3,2.7,3,2.7h13.1c1.6,0,3-1.2,3-2.7v-27.5
		C-195.5,381.7-196.8,380.5-198.5,380.5z M-206.7,381.3h3.3c0.1,0,0.3,0.1,0.3,0.2c0,0.1-0.1,0.2-0.3,0.2h-3.3
		c-0.1,0-0.3-0.1-0.3-0.2C-206.9,381.4-206.8,381.3-206.7,381.3z M-203,411.9c0,0.3-0.3,0.5-0.6,0.5h-2.9c-0.3,0-0.6-0.2-0.6-0.5
		v-0.3c0-0.3,0.3-0.5,0.6-0.5h2.9c0.3,0,0.6,0.2,0.6,0.5V411.9z M-196.6,410.6h-16.8v-27.2h16.8V410.6z"/>
</g>
</svg>
