<?xml version="1.0" encoding="utf-8"?>
<!-- Generator: Adobe Illustrator 18.1.1, SVG Export Plug-In . SVG Version: 6.00 Build 0)  -->
<svg version="1.1" id="Layer_1" xmlns="http://www.w3.org/2000/svg" xmlns:xlink="http://www.w3.org/1999/xlink" x="0px" y="0px"
	 viewBox="-232.5 369.5 55 55" enable-background="new -232.5 369.5 55 55" xml:space="preserve">
<path fill="#cccccc" d="M-178,380.3l-10.4-10.5c-0.2-0.2-0.6-0.4-1-0.4h-4h-23.2h-12.2c-2,0-3.7,1.6-3.7,3.7v47.7
	c0,2,1.6,3.7,3.7,3.7h7.8h33.1h6.8c2,0,3.7-1.6,3.7-3.7v-39.5C-177.5,381-177.7,380.6-178,380.3z M-194.8,372.3v12.3
	c0,0.1-0.1,0.1-0.1,0.1h-3.8v-12.3H-194.8z M-201.5,372.3v12.3h-13.7c-0.1,0-0.1-0.1-0.1-0.1v-12.3H-201.5z M-219.7,421.7v-17.1
	c0-3.2,2.6-5.8,5.8-5.8h18.7c3.2,0,5.8,2.6,5.8,5.8v17.1H-219.7z M-180.3,420.8c0,0.4-0.4,0.9-0.9,0.9h-5.4v-17.1
	c0-4.7-3.9-8.6-8.6-8.6h-18.7c-4.7,0-8.6,3.9-8.6,8.6v17.1h-6.4c-0.4,0-0.9-0.4-0.9-0.9v-47.7c0-0.4,0.4-0.9,0.9-0.9h10.8v12.3
	c0,1.6,1.3,2.8,2.8,2.8h20.3c1.6,0,2.8-1.3,2.8-2.8v-12.3h2.1l9.6,9.6L-180.3,420.8z M-194.5,413.6c0,0.7-0.6,1.3-1.3,1.3h-17.1
	c-0.7,0-1.3-0.6-1.3-1.3c0-0.7,0.6-1.3,1.3-1.3h17C-195.1,412.2-194.5,412.8-194.5,413.6z M-194.5,406.4c0,0.7-0.6,1.3-1.3,1.3
	h-17.1c-0.7,0-1.3-0.6-1.3-1.3s0.6-1.3,1.3-1.3h17C-195.1,405-194.5,405.6-194.5,406.4z"/>
</svg>
