<?xml version="1.0" encoding="utf-8"?>
<!-- Generator: Adobe Illustrator 18.1.1, SVG Export Plug-In . SVG Version: 6.00 Build 0)  -->
<svg version="1.1" id="Layer_1" xmlns="http://www.w3.org/2000/svg" xmlns:xlink="http://www.w3.org/1999/xlink" x="0px" y="0px"
	 viewBox="-214.5 387.5 19 19" enable-background="new -214.5 387.5 19 19" xml:space="preserve">
<path fill="#FFFFFF" d="M-195.6,391.2l-3.6-3.6c-0.1-0.1-0.2-0.1-0.3-0.1h-1.4h-8h-4.2c-0.7,0-1.3,0.6-1.3,1.3v16.5
	c0,0.7,0.6,1.3,1.3,1.3h2.7h11.4h2.3c0.7,0,1.3-0.6,1.3-1.3v-13.7C-195.5,391.5-195.5,391.3-195.6,391.2z M-201.4,388.5v4.2
	c0,0,0,0,0,0h-1.3v-4.3H-201.4z M-203.8,388.5v4.3h-4.7c0,0,0,0,0,0v-4.2H-203.8z M-210,405.5v-5.9c0-1.1,0.9-2,2-2h6.5
	c1.1,0,2,0.9,2,2v5.9H-210z M-196.4,405.2c0,0.2-0.1,0.3-0.3,0.3h-1.9v-5.9c0-1.6-1.3-3-3-3h-6.4c-1.6,0-3,1.3-3,3v5.9h-2.2
	c-0.2,0-0.3-0.1-0.3-0.3v-16.5c0-0.2,0.1-0.3,0.3-0.3h3.7v4.2c0,0.5,0.4,1,1,1h7c0.5,0,1-0.4,1-1v-4.2h0.7l3.3,3.3V405.2z
	 M-201.3,402.7c0,0.3-0.2,0.5-0.5,0.5h-5.9c-0.3,0-0.5-0.2-0.5-0.5s0.2-0.5,0.5-0.5h5.9C-201.5,402.3-201.3,402.5-201.3,402.7z
	 M-201.3,400.3c0,0.3-0.2,0.5-0.5,0.5h-5.9c-0.3,0-0.5-0.2-0.5-0.5s0.2-0.5,0.5-0.5h5.9C-201.5,399.8-201.3,400-201.3,400.3z"/>
</svg>
