<?xml version="1.0" encoding="utf-8"?>
<!-- Generator: Adobe Illustrator 18.1.1, SVG Export Plug-In . SVG Version: 6.00 Build 0)  -->
<svg version="1.1" id="Layer_1" xmlns="http://www.w3.org/2000/svg" xmlns:xlink="http://www.w3.org/1999/xlink" x="0px" y="0px"
	 viewBox="-214.5 387.5 19 19" enable-background="new -214.5 387.5 19 19" xml:space="preserve">
<path fill="#FFFFFF" d="M-196.7,401.3c-0.1-1.9-1.6-3.4-3.5-3.5v-1.2h-0.5v1.2c-1.9,0.1-3.3,1.6-3.5,3.5h-1.2v0.5h1.2
	c0.1,1.9,1.6,3.4,3.5,3.5v1.2h0.5v-1.2c1.9-0.1,3.3-1.6,3.5-3.5h1.2v-0.5H-196.7z M-198.1,403.8c-0.5,0.5-1.2,0.9-2,0.9v-1.5h-0.5
	v1.5c-0.8-0.1-1.5-0.4-2-0.9c-0.5-0.5-0.9-1.2-0.9-2h1.5v-0.5h-1.5c0.1-0.8,0.4-1.5,0.9-2c0.5-0.5,1.2-0.9,2-0.9v1.5h0.5v-1.5
	c0.8,0.1,1.5,0.4,2,0.9c0.5,0.5,0.9,1.2,0.9,2h-1.5v0.5h1.5C-197.3,402.6-197.6,403.3-198.1,403.8z"/>
<path fill="#FFFFFF" d="M-214.5,387.5v18.3h8v-1.3h-6.7v-14.3h15.7v5.3h1.3v-8H-214.5z M-212.6,389.4c-0.4,0-0.6-0.3-0.6-0.6
	s0.3-0.6,0.6-0.6c0.4,0,0.6,0.3,0.6,0.6S-212.2,389.4-212.6,389.4z M-210.6,389.4c-0.4,0-0.6-0.3-0.6-0.6s0.3-0.6,0.6-0.6
	c0.4,0,0.6,0.3,0.6,0.6S-210.3,389.4-210.6,389.4z M-208.7,389.4c-0.4,0-0.6-0.3-0.6-0.6s0.3-0.6,0.6-0.6s0.6,0.3,0.6,0.6
	S-208.3,389.4-208.7,389.4z"/>
</svg>
