<?xml version="1.0" encoding="utf-8"?>
<!-- Generator: Adobe Illustrator 18.1.1, SVG Export Plug-In . SVG Version: 6.00 Build 0)  -->
<svg version="1.1" id="Layer_1" xmlns="http://www.w3.org/2000/svg" xmlns:xlink="http://www.w3.org/1999/xlink" x="0px" y="0px"
	 viewBox="-213.5 388.5 17 17" enable-background="new -213.5 388.5 17 17" xml:space="preserve">
<path fill="#8A8989" d="M-207.5,400.5c1.4,0,2.7-0.5,3.7-1.3l6.1,6.1c0.1,0.1,0.3,0.2,0.5,0.2c0.2,0,0.4-0.1,0.5-0.2
	c0.3-0.3,0.3-0.7,0-1l-6-6.1c0.8-1,1.3-2.3,1.3-3.7c0-3.3-2.7-6-6-6c-3.3,0-6,2.7-6,6S-210.8,400.5-207.5,400.5z M-207.5,389.9
	c2.6,0,4.6,2.1,4.6,4.6c0,2.5-2.1,4.6-4.6,4.6s-4.6-2.1-4.6-4.6C-212.1,392-210,389.9-207.5,389.9z"/>
</svg>
