<?xml version="1.0" encoding="utf-8"?>
<!-- Generator: Adobe Illustrator 18.1.1, SVG Export Plug-In . SVG Version: 6.00 Build 0)  -->
<svg version="1.1" id="Ebene_1" xmlns="http://www.w3.org/2000/svg" xmlns:xlink="http://www.w3.org/1999/xlink" x="0px" y="0px"
	 viewBox="-214 388 18 18" enable-background="new -214 388 18 18" xml:space="preserve">
<g>
	<path fill="#FFFFFF" d="M-197.1,406h-1.7v-0.7h1.7c0.2,0,0.4-0.2,0.4-0.4l0.7,0v0C-196,405.5-196.5,406-197.1,406z M-201.6,406
		h-2.8v-0.7h2.8V406z M-207.3,406h-2.8v-0.7h2.8V406z M-212.9,406L-212.9,406c-0.6,0-1.1-0.5-1.1-1.1v-1.7h0.7v1.7
		c0,0.2,0.2,0.4,0.4,0.4L-212.9,406z M-196,402.1h-0.7v-2.8h0.7V402.1z M-213.3,400.4h-0.7v-2.8h0.7V400.4z M-196,396.4h-0.7v-2.8
		h0.7V396.4z M-213.3,394.8h-0.7v-2.8h0.7V394.8z M-196,390.8h-0.7v-1.7c0-0.2-0.2-0.4-0.4-0.4l0-0.7h0c0.6,0,1.1,0.5,1.1,1.1V390.8
		z M-214,389.1L-214,389.1c0-0.6,0.5-1.1,1.1-1.1h1.7v0.7h-1.7c-0.2,0-0.4,0.2-0.4,0.4L-214,389.1z M-199.9,388.7h-2.8V388h2.8
		V388.7z M-205.6,388.7h-2.8V388h2.8V388.7z"/>
</g>
</svg>
