<?xml version="1.0" encoding="utf-8"?>
<!-- Generator: Adobe Illustrator 18.1.1, SVG Export Plug-In . SVG Version: 6.00 Build 0)  -->
<svg version="1.1" id="Layer_1" xmlns="http://www.w3.org/2000/svg" xmlns:xlink="http://www.w3.org/1999/xlink" x="0px" y="0px"
	 viewBox="-216.5 385.5 23 23" enable-background="new -216.5 385.5 23 23" xml:space="preserve">
<g id="Your_Icon">
	<path fill="#999B9D" d="M-205,385.5c-6.4,0-11.5,5.1-11.5,11.5s5.1,11.5,11.5,11.5s11.5-5.1,11.5-11.5S-198.6,385.5-205,385.5z
		 M-203.3,392.5c0.5,0,0.9,0.4,0.9,0.9c0,0.5-0.4,0.9-0.9,0.9c-0.5,0-0.9-0.4-0.9-0.9C-204.2,393-203.8,392.5-203.3,392.5z
		 M-206.7,392.5c0.5,0,0.9,0.4,0.9,0.9c0,0.5-0.4,0.9-0.9,0.9c-0.5,0-0.9-0.4-0.9-0.9C-207.6,393-207.2,392.5-206.7,392.5z
		 M-205,401.5c-3.4,0-6.2-2.8-6.2-6.2c0-0.6,0.5-1.1,1.1-1.1c0.6,0,1.1,0.5,1.1,1.1c0,2.2,1.8,4.1,4.1,4.1c2.2,0,4.1-1.8,4.1-4.1
		c0-0.6,0.5-1.1,1.1-1.1s1.1,0.5,1.1,1.1C-198.8,398.7-201.6,401.5-205,401.5z"/>
</g>
</svg>
