<?xml version="1.0" encoding="utf-8"?>
<!-- Generator: Adobe Illustrator 18.1.1, SVG Export Plug-In . SVG Version: 6.00 Build 0)  -->
<svg version="1.1" id="Layer_1" xmlns="http://www.w3.org/2000/svg" xmlns:xlink="http://www.w3.org/1999/xlink" x="0px" y="0px"
	 viewBox="-214 387.8 18 15" enable-background="new -214 387.8 18 15" xml:space="preserve">
<path fill="#FFFFFF" d="M-214,395.4c0,0,3.9,2.2,4.2,2.4c0,0.4-0.1,5-0.1,5s3.9-3,4.2-3.2c0.4,0.2,3.1,1.6,3.1,1.6l6.6-13.3
	L-214,395.4z M-206.1,398.9c-0.6,0.4-2,1.6-2.8,2.2c0.5-1,1.3-2.7,1.4-2.9C-207.3,398.2-206.5,398.7-206.1,398.9z M-207.6,397.7
	l-1.5,3.1c0-1,0.1-2.7,0.1-3.3l9.4-6.8L-207.6,397.7L-207.6,397.7L-207.6,397.7z M-198.5,389.6l-10.6,7.6c-0.5-0.3-2.4-1.4-3.2-1.8
	C-211.3,395-201.8,391-198.5,389.6z M-205.8,398.7C-205.8,398.7-205.8,398.7-205.8,398.7l-1.5-0.8l9.6-8.5c-0.9,1.9-5,10.2-5.3,10.7
	C-203.5,399.9-205.8,398.7-205.8,398.7z"/>
</svg>
