<?xml version="1.0" encoding="utf-8"?>
<!-- Generator: Adobe Illustrator 18.1.1, SVG Export Plug-In . SVG Version: 6.00 Build 0)  -->
<svg version="1.1" id="Layer_1" xmlns="http://www.w3.org/2000/svg" xmlns:xlink="http://www.w3.org/1999/xlink" x="0px" y="0px"
	 viewBox="-299.5 391.5 21 11" enable-background="new -299.5 391.5 21 11" xml:space="preserve">
<path fill="#FFFFFF" d="M-289,391.5c-4.1,0-7.8,2.1-10.5,5.5c2.7,3.4,6.4,5.5,10.5,5.5c4.1,0,7.8-2.1,10.5-5.5
	C-281.2,393.6-284.9,391.5-289,391.5z M-289,393.3c2.2,0,3.9,1.6,3.9,3.7s-1.8,3.7-3.9,3.7s-3.9-1.6-3.9-3.7S-291.2,393.3-289,393.3
	z M-289,395.2c-1.1,0-2,0.8-2,1.8s0.9,1.8,2,1.8s2-0.8,2-1.8S-287.9,395.2-289,395.2z"/>
</svg>
