<?xml version="1.0" encoding="utf-8"?>
<!-- Generator: Adobe Illustrator 18.1.1, SVG Export Plug-In . SVG Version: 6.00 Build 0)  -->
<svg version="1.1" id="Layer_1" xmlns="http://www.w3.org/2000/svg" xmlns:xlink="http://www.w3.org/1999/xlink" x="0px" y="0px"
	 viewBox="-213.5 387.5 17 19" enable-background="new -213.5 387.5 17 19" xml:space="preserve">
<g id="Layer_2">
	<path fill="#FFFFFF" d="M-205,387.5c-4.7,0-8.5,3.7-8.5,8.4c0,4.5,3.7,8.2,8.3,8.3l0,2.3l3.3-3.1l-3.4-3l0,2.5
		c-3.8-0.1-6.9-3.2-6.9-7c0-3.9,3.2-7,7.2-7s7.2,3.2,7.2,7c0,1.3-0.4,2.6-1.1,3.8l1.1,0.7c0.9-1.3,1.3-2.9,1.3-4.5
		C-196.5,391.2-200.3,387.5-205,387.5z"/>
</g>
</svg>
