<?xml version="1.0" encoding="utf-8"?>
<!-- Generator: Adobe Illustrator 18.1.1, SVG Export Plug-In . SVG Version: 6.00 Build 0)  -->
<svg version="1.1" id="Layer_1" xmlns="http://www.w3.org/2000/svg" xmlns:xlink="http://www.w3.org/1999/xlink" x="0px" y="0px"
	 viewBox="-234 359.5 58 75" enable-background="new -234 359.5 58 75" xml:space="preserve">
<g id="Your_Icon">
	<g>
		<polygon fill="#FFA200" points="-234,379.8 -214,359.5 -214,379.8 		"/>
		<g>
			<path fill="#FFA200" d="M-201.3,405.3l8.3,8.1c0.7,0.7,1.7,1.1,2.6,1.1c1,0,1.9-0.4,2.7-1.1c1.4-1.5,1.4-3.9-0.1-5.3l-14.6-14.3
				c-1.4-1.4-3.7-1.4-5.2,0l-14.6,14.3c-1.5,1.4-1.5,3.8-0.1,5.3c1.4,1.5,3.8,1.5,5.3,0.1l8.3-8.1v29.2h-21.6c-2,0-3.6-1.7-3.6-3.7
				v-43.5h23.8c2,0,3.6-1.6,3.6-3.7v-24.1h26.9c2,0,3.6,1.6,3.6,3.7v67.6c0,2-1.6,3.7-3.6,3.7h-21.6V405.3z"/>
		</g>
	</g>
</g>
</svg>
