<?xml version="1.0" encoding="utf-8"?>
<!-- Generator: Adobe Illustrator 18.1.1, SVG Export Plug-In . SVG Version: 6.00 Build 0)  -->
<svg version="1.1" id="Your_Icon" xmlns="http://www.w3.org/2000/svg" xmlns:xlink="http://www.w3.org/1999/xlink" x="0px" y="0px"
	 viewBox="-215 387 20 20" enable-background="new -215 387 20 20" xml:space="preserve">
<path fill="#9F9F9F" d="M-205,398c5,0,9,4.1,9,9h1c0-5.5-4.5-10-10-10s-10,4.5-10,10h1C-214,402-210,398-205,398z"/>
<path fill="#9F9F9F" d="M-205,387c-3,0-5.5,2.5-5.5,5.5c0,3,2.5,5.5,5.5,5.5s5.5-2.5,5.5-5.5C-199.5,389.5-202,387-205,387z
	 M-205,397c-2.5,0-4.5-2-4.5-4.5s2-4.5,4.5-4.5s4.5,2,4.5,4.5S-202.5,397-205,397z"/>
</svg>
