<?xml version="1.0" encoding="utf-8"?>
<!-- Generator: Adobe Illustrator 18.1.1, SVG Export Plug-In . SVG Version: 6.00 Build 0)  -->
<svg version="1.1" id="Capa_1" xmlns="http://www.w3.org/2000/svg" xmlns:xlink="http://www.w3.org/1999/xlink" x="0px" y="0px"
	 viewBox="-215.5 386 21 22" enable-background="new -215.5 386 21 22" xml:space="preserve">
<g>
	<g>
		<path fill="#FFF" d="M-205,408c-8.2,0-10-1.2-10.4-1.5l-0.1-0.1l0-0.2c0-0.6,0.2-2.2,0.4-2.9c0.3-0.9,0.7-1.3,1.2-1.7
			c0.2-0.2,1.1-0.5,2.5-1c1.2-0.5,2.6-1,3.1-1.3c0.4-0.2,0.9-1.4,0.8-1.8c0-0.1-0.2-0.3-0.3-0.4c0,0,0,0,0,0c0,0,0,0,0,0
			c-0.5-0.6-1.2-1.7-1.5-2.8c-0.4-1.5-0.7-4.6,0.7-6.5c0.8-1.1,2-1.6,3.6-1.7l0,0l0.1,0c1.6,0.1,2.8,0.6,3.6,1.7
			c1.4,1.9,1.1,4.9,0.7,6.5c-0.3,1.1-1,2.3-1.5,2.8c-0.3,0.3-0.3,0.4-0.3,0.4c0,0.4,0.3,1.6,0.8,1.9c0.5,0.3,1.9,0.8,3.1,1.3
			c1.3,0.5,2.2,0.9,2.5,1c0.5,0.3,0.9,0.8,1.2,1.7c0.2,0.7,0.4,2.3,0.4,2.9l0,0.2l-0.1,0.1C-195,406.8-196.9,408-205,408z
			 M-214.7,406c0.5,0.3,2.5,1.2,9.7,1.2c7.2,0,9.2-0.9,9.7-1.2c-0.1-0.9-0.2-2-0.4-2.5c-0.3-0.7-0.5-1-0.9-1.3
			c-0.2-0.1-1.5-0.6-2.3-1c-1.3-0.5-2.7-1-3.2-1.3c-0.8-0.5-1.2-2-1.2-2.5c0-0.3,0.2-0.5,0.5-0.9c0.5-0.5,1.1-1.5,1.3-2.5
			c0.4-1.4,0.6-4.2-0.5-5.8c-0.6-0.9-1.6-1.3-3-1.4l-0.1,0l0,0c-1.4,0-2.4,0.5-3,1.4c-1.2,1.7-0.9,4.4-0.5,5.8c0.3,1,0.9,2,1.3,2.5
			c0,0,0,0,0,0c0,0,0,0,0,0c0.2,0.3,0.4,0.4,0.4,0.7c0.3,0.8-0.4,2.4-1.1,2.7c-0.5,0.3-1.9,0.8-3.2,1.3c-0.9,0.3-2.1,0.8-2.3,1
			c-0.4,0.3-0.7,0.6-0.9,1.3C-214.6,404-214.7,405.1-214.7,406z"/>
	</g>
	<g>
		<path fill="#FFF" stroke="#FFFFFF" stroke-width="3.095" stroke-linecap="round" stroke-miterlimit="10" d="M-207.5,396.7"/>
	</g>
</g>
</svg>
