<?xml version="1.0" encoding="utf-8"?>
<!-- Generator: Adobe Illustrator 18.1.1, SVG Export Plug-In . SVG Version: 6.00 Build 0)  -->
<svg version="1.1" id="Isolation_Mode" xmlns="http://www.w3.org/2000/svg" xmlns:xlink="http://www.w3.org/1999/xlink" x="0px"
	 y="0px" viewBox="-213 389 16 16" enable-background="new -213 389 16 16" xml:space="preserve">
<g id="Layer_1">
	<path fill="#0377ED" d="M-205,389c-4.3,0-8,3.7-8,8s3.7,8,8,8s8-3.7,8-8S-200.7,389-205,389z M-205,404.2c-3.9,0-7.2-3.3-7.2-7.2
		s3.3-7.2,7.2-7.2s7.2,3.3,7.2,7.2S-201.1,404.2-205,404.2z"/>
	<path fill="#0377ED" d="M-205.7,392.8l-0.2,0.9c-0.3,0.1-0.5,0.2-0.8,0.3l-0.8-0.5l-0.9,0.9l0.5,0.8c-0.1,0.2-0.3,0.5-0.3,0.8
		l-0.9,0.2v1.3l0.9,0.2c0.1,0.3,0.2,0.5,0.3,0.8l-0.5,0.8l0.9,0.9l0.8-0.5c0.2,0.1,0.5,0.3,0.8,0.3l0.2,0.9h1.3l0.2-0.9
		c0.3-0.1,0.5-0.2,0.8-0.3l0.8,0.5l0.9-0.9l-0.5-0.8c0.1-0.2,0.3-0.5,0.3-0.8l0.9-0.2v-1.3l-0.9-0.2c-0.1-0.3-0.2-0.5-0.3-0.8
		l0.5-0.8l-0.9-0.9l-0.8,0.5c-0.2-0.1-0.5-0.3-0.8-0.3l-0.2-0.9H-205.7L-205.7,392.8z M-205,394.8c1.2,0,2.2,1,2.2,2.2
		s-1,2.2-2.2,2.2c-1.2,0-2.2-1-2.2-2.2S-206.2,394.8-205,394.8z"/>
</g>
</svg>
