<?xml version="1.0" encoding="utf-8"?>
<!-- Generator: Adobe Illustrator 18.1.1, SVG Export Plug-In . SVG Version: 6.00 Build 0)  -->
<svg version="1.1" id="Your_Icon" xmlns="http://www.w3.org/2000/svg" xmlns:xlink="http://www.w3.org/1999/xlink" x="0px" y="0px"
	 viewBox="-212 389 14 16" enable-background="new -212 389 14 16" xml:space="preserve">
<g>
	<g>
		<path fill="#FFFFFF" d="M-205,394.6c-0.4,0-0.8-0.3-0.8-0.7v-4.3c0-0.4,0.3-0.7,0.8-0.7s0.8,0.3,0.8,0.7v4.3
			C-204.2,394.3-204.6,394.6-205,394.6z"/>
	</g>
	<path fill="#FFFFFF" d="M-205,405c3.9,0,7-3.3,7-7.3c0-2.7-1.4-5.1-3.6-6.4c-0.3-0.2-0.4,0.1-0.4,0.1v1.3c0,0,0,0.2,0.1,0.3
		c1.4,1,2.3,2.7,2.3,4.7c0,3.1-2.5,5.7-5.5,5.7c-3,0-5.5-2.6-5.5-5.7c0-1.9,0.9-3.6,2.3-4.7c0.1-0.1,0.1-0.3,0.1-0.3v-1.3
		c0,0-0.1-0.3-0.4-0.1c-2.1,1.3-3.6,3.6-3.6,6.4C-212,401.7-208.9,405-205,405z"/>
</g>
</svg>
