<?xml version="1.0" encoding="utf-8"?>
<!-- Generator: Adobe Illustrator 18.1.1, SVG Export Plug-In . SVG Version: 6.00 Build 0)  -->
<svg version="1.1" id="Your_Icon" xmlns="http://www.w3.org/2000/svg" xmlns:xlink="http://www.w3.org/1999/xlink" x="0px" y="0px"
	 viewBox="-249.5 344.5 89 105" enable-background="new -249.5 344.5 89 105" xml:space="preserve">
<path fill="#D3D5D7" d="M-247.3,436c0,0-0.6-0.4-0.5-0.4l19.8,12.3l0,0l1.3,0.8c1.5,1,3.4,1.1,4.5-0.3c1.1-1.3,0.9-3.3-0.4-4.5
	l-0.4-0.3l-8.6-7.8c0,0,0,0,0,0c3.4-0.5,7.5-1.3,12.1-2.5c6.4-1.7,13.8-4.2,21.2-8c7.4-3.8,14.7-9.1,20.5-15.8
	c0.7-0.9,1.4-1.8,2.1-2.6c0.7-0.9,1.2-1.7,1.8-2.6l0.5-0.7l0.4-0.7l0.8-1.4c0.5-0.9,1.1-1.8,1.6-2.8c0.6-0.9,1-1.9,1.5-2.8
	c0.5-0.9,0.9-1.9,1.4-2.8c0.5-0.9,0.9-1.9,1.2-2.8c0.4-1,0.8-1.9,1.1-2.8c2.8-7.6,4.3-15.1,4.6-21.6c0.3-6.5-0.3-11.9-0.9-15.6
	c-0.7-3.7-1.4-5.7-1.4-5.7s0.6,2.1,1,5.8c0.4,3.7,0.6,9-0.2,15.3c-0.8,6.3-2.7,13.4-6,20.4c-0.4,0.9-0.9,1.8-1.3,2.6
	c-0.4,0.9-0.8,1.8-1.4,2.6c-0.5,0.9-1,1.7-1.5,2.6c-0.5,0.9-5.4,7.3-5.4,7.3c-0.7,0.8-1.3,1.7-2,2.4c-0.7,0.7-1.3,1.5-2,2.2
	c-5.7,5.7-12.7,10-19.8,13c-7,3-14.1,4.8-20.1,5.9c-4,0.7-7.7,1.2-10.7,1.4l7.3-8.2l0.3-0.4c1.2-1.3,1-3.3-0.3-4.5
	c-1.4-1.2-3.5-1.2-4.5,0.2l0-0.1l-0.1-0.1l-17.3,14.4c-1.9,0.9-3,3-2.5,5.2c0.3,1.2,0.9,2.2,1.9,2.9
	C-247.4,435.8-247.4,435.9-247.3,436z"/>
</svg>
